<svg height="512" viewBox="0 0 64 64" width="512" xmlns="http://www.w3.org/2000/svg"><g id="Filled_outline" data-name="Filled outline"><path d="m34 27v-14h-4v14s-1.82 4.377-11 7l2 7 3 7c1.4 3.354 4.367 5 8 5 3.633 0 6.6-1.646 8-5l3-7 2-7c-9.18-2.623-11-7-11-7z" fill="#e8e7d6"/><path d="m36 40c0 1.449-1.827 4-4 4s-4-2.551-4-4 1.827-2 4-2 4 .551 4 2z" fill="#143441"/><path d="m18.665 11.865a91.717 91.717 0 0 0 -1.091 9.135c-.086 1.388-1.927 4.39-3.639 6.911l5.065 6.089c9.18-2.623 11-7 11-7v-14z" fill="#d3843d"/><path d="m19 10s-8.825 3.138-14 4c-6 1 4.689 15.377 6 18 0 0 6.411-8.382 6.574-11a94.784 94.784 0 0 1 1.426-11z" fill="#ad6327"/><path d="m45.335 11.865a91.717 91.717 0 0 1 1.091 9.135c.086 1.388 1.927 4.39 3.639 6.911l-5.065 6.089c-9.18-2.623-11-7-11-7v-14z" fill="#d3843d"/><path d="m45 10s8.825 3.138 14 4c6 1-4.689 15.377-6 18 0 0-6.411-8.382-6.574-11a94.784 94.784 0 0 0 -1.426-11z" fill="#ad6327"/><path d="m20 20c0 1.1 1.343 1 3 1a3.428 3.428 0 0 0 3-3c0-1.105-1.343-1-3-1a3.427 3.427 0 0 0 -3 3z" fill="#f9bb4b"/><path d="m44 20c0 1.1-1.343 1-3 1a3.428 3.428 0 0 1 -3-3c0-1.105 1.343-1 3-1a3.427 3.427 0 0 1 3 3z" fill="#f9bb4b"/><path d="m27.2 46.02-.4 1.96a8.6 8.6 0 0 0 1.69.181 4.586 4.586 0 0 0 3-.962 3.7 3.7 0 0 0 .5-.5 3.7 3.7 0 0 0 .505.5 4.584 4.584 0 0 0 3 .962 8.6 8.6 0 0 0 1.69-.181l-.385-1.96a3.652 3.652 0 0 1 -3.018-.357 2.024 2.024 0 0 1 -.6-.855 5.8 5.8 0 0 0 3.818-4.808c0-.9-.487-3-5-3s-5 2.1-5 3a5.8 5.8 0 0 0 3.818 4.808 2.024 2.024 0 0 1 -.6.855 3.653 3.653 0 0 1 -3.018.357zm1.8-6.02c0-.589 1.233-1 3-1s3 .411 3 1c0 .962-1.419 3-3 3s-3-2.038-3-3z"/><circle cx="24" cy="25" r="2"/><path d="m2.485 14.709c-1.371 3.075 2.265 9.226 6.106 15.262.692 1.089 1.291 2.029 1.514 2.476a1 1 0 0 0 .8.548c.032 0 .064.005.1.005a1 1 0 0 0 .794-.393c.368-.481 1.232-1.628 2.222-3.036l4.08 4.906 1.942 6.8a1.007 1.007 0 0 0 .043.12l3 6.991c1.478 3.565 4.73 5.612 8.914 5.612s7.436-2.047 8.919-5.606l3-7a1.007 1.007 0 0 0 .043-.12l1.942-6.8 4.08-4.906c.99 1.408 1.854 2.555 2.222 3.036a1 1 0 0 0 .794.396c.031 0 .062 0 .095-.005a1 1 0 0 0 .8-.548c.223-.448.822-1.387 1.514-2.476 3.841-6.036 7.477-12.187 6.106-15.262a2.927 2.927 0 0 0 -2.351-1.7c-5.026-.838-13.741-3.925-13.829-3.956a1 1 0 0 0 -1.315 1.136c0 .012.058.3.145.783l-10.216 1.028h-3.9l-10.214-1.023c.087-.482.143-.771.145-.783a1 1 0 0 0 -1.315-1.136c-.088.031-8.8 3.118-13.829 3.956a2.927 2.927 0 0 0 -2.351 1.695zm56.351.277c.586.1.763.339.851.537 1.048 2.351-3.867 10.077-5.965 13.377-.31.488-.586.921-.823 1.3-2.464-3.353-5.386-7.84-5.474-9.259a93.014 93.014 0 0 0 -1.136-9.441 96.923 96.923 0 0 0 12.547 3.486zm-23.836-1.081 9.5-.951c.331 2.087.743 5.1.93 8.108.092 1.493 1.722 4.294 3.382 6.792l-4.153 4.994c-7.045-2.159-9.239-5.357-9.658-6.089zm-4.076 13.479a1.011 1.011 0 0 0 .076-.384v-13h2v13a1.011 1.011 0 0 0 .076.384c.079.19 1.978 4.538 10.692 7.29l-1.712 5.99-2.979 6.951c-1.177 2.827-3.691 4.385-7.077 4.385s-5.9-1.558-7.081-4.394l-2.975-6.942-1.712-5.99c8.714-2.752 10.613-7.1 10.692-7.29zm-11.424-14.43 9.5.951v12.854c-.419.732-2.613 3.93-9.658 6.089l-4.153-4.994c1.66-2.5 3.29-5.3 3.382-6.792.187-3.012.599-6.021.929-8.108zm-1.789-1.454a93.014 93.014 0 0 0 -1.136 9.435c-.088 1.418-3.01 5.906-5.474 9.259-.237-.38-.513-.812-.823-1.3-2.1-3.3-7.013-11.023-5.966-13.374.089-.2.266-.439.852-.537a96.923 96.923 0 0 0 12.547-3.483z"/><circle cx="40" cy="25" r="2"/><path d="m22.242 22.006h.366.392a4.411 4.411 0 0 0 4-4 1.8 1.8 0 0 0 -.521-1.321c-.7-.693-1.8-.689-3.087-.68h-.392a4.411 4.411 0 0 0 -4 4 1.8 1.8 0 0 0 .521 1.321 3.711 3.711 0 0 0 2.721.68zm.758-4.006h.4a8.1 8.1 0 0 1 1.594.08c-.073.655-1 1.921-2 1.921h-.4a8.238 8.238 0 0 1 -1.594-.08c.078-.652 1.009-1.921 2-1.921z"/><path d="m41 22h.392.366a3.711 3.711 0 0 0 2.721-.682 1.8 1.8 0 0 0 .521-1.318 4.411 4.411 0 0 0 -4-4h-.392c-1.285-.008-2.391-.013-3.087.68a1.8 1.8 0 0 0 -.521 1.32 4.411 4.411 0 0 0 4 4zm-.4-4h.4c.991 0 1.922 1.266 1.995 1.921a7.939 7.939 0 0 1 -1.595.079h-.4c-.981 0-1.9-1.24-1.992-1.922a8.417 8.417 0 0 1 1.592-.078z"/></g></svg>