<svg height="512" viewBox="0 0 64 64" width="512" xmlns="http://www.w3.org/2000/svg"><g id="Filled_outline" data-name="Filled outline"><path d="m39.006 15h-14.012l-10.994 11 1 11 2 10s4.491 14 15 14 15-14 15-14l2-10 1-11z" fill="#e8e7d6"/><path d="m25 15-11 11 1 11 1.6 8.017c14.5-6.228 13.4-21.017 13.4-21.017v-9.091z" fill="#d9833b"/><path d="m39 15 11 11-1 11-1.6 8.017c-14.5-6.228-13.4-20.926-13.4-20.926v-9.091z" fill="#d9833b"/><path d="m37 47c0 1.941-2.1 6-5 6s-5-4.059-5-6 2.1-2 5-2 5 .059 5 2z" fill="#143441"/><path d="m25 15s-1.757-9.51-14.017-12c0 0-6.762 10.4 3.017 23z" fill="#ad6327"/><path d="m17 23a15.742 15.742 0 0 1 -3-15c5 2 8 10 8 10z" fill="#ffd782"/><path d="m39 15s1.757-9.51 14.017-12c0 0 6.762 10.4-3.017 23z" fill="#ad6327"/><path d="m47 23a15.742 15.742 0 0 0 3-15c-5 2-8 10-8 10z" fill="#ffd782"/><path d="m38 47c0-3-3.188-3-6-3s-6 0-6 3c0 2.172 1.933 5.964 4.813 6.82a2.01 2.01 0 0 1 -.6.843 3.653 3.653 0 0 1 -3.018.357l-.395 1.96a8.6 8.6 0 0 0 1.69.181 4.586 4.586 0 0 0 3-.962 3.7 3.7 0 0 0 .5-.5 3.7 3.7 0 0 0 .505.5 4.584 4.584 0 0 0 3 .962 8.6 8.6 0 0 0 1.69-.181l-.385-1.96a3.653 3.653 0 0 1 -3.018-.357 2.01 2.01 0 0 1 -.6-.843c2.885-.856 4.818-4.648 4.818-6.82zm-6 5c-2.269 0-4-3.55-4-5 0-.794.822-1 4-1s4 .206 4 1c0 1.45-1.731 5-4 5z"/><circle cx="23" cy="30" r="2"/><path d="m26.119 28.474 1.762-.948c-2.21-4.1-6.415-3.377-8.328-2.421l.89 1.791c.392-.196 3.871-1.775 5.676 1.578z"/><path d="m28.948 19.316-1.9-.632c-.748 2.269-4.018 2.316-4.048 2.316v2c.192 0 4.734-.042 5.948-3.684z"/><path d="m52.818 2.02c-10.778 2.19-13.85 9.499-14.594 11.98h-12.448c-.744-2.481-3.816-9.79-14.594-11.98a1 1 0 0 0 -1.038.435 17.788 17.788 0 0 0 -2.314 7.21c-.442 3.946.118 10.028 5.2 16.7l.97 10.726c0 .035.009.07.016.1l2 10a.71.71 0 0 0 .028.11c.196.604 4.846 14.699 15.956 14.699s15.76-14.095 15.952-14.694a.71.71 0 0 0 .028-.11l2-10c.007-.035.012-.07.016-.1l.975-10.723c5.081-6.675 5.641-12.757 5.2-16.7a17.788 17.788 0 0 0 -2.314-7.21 1.006 1.006 0 0 0 -1.039-.443zm-41.332 2.114c9.388 2.192 11.878 8.681 12.408 10.552l-1.557 1.558c-1.147-2.489-3.9-7.547-7.966-9.173a1 1 0 0 0 -1.308.577 16.681 16.681 0 0 0 2.607 15.266l-1.561 1.562c-7.136-9.927-3.788-18.112-2.623-20.342zm9.335 13.627-3.739 3.739a14.589 14.589 0 0 1 -2.456-12.07c3.241 1.975 5.482 6.67 6.195 8.331zm-4.83 19.1-.953-10.48 10.376-10.381h3.586v8.072c.04.56.8 13.4-11.667 19.505zm30.04 9.887c-.299.881-4.662 13.252-14.031 13.252-9.35 0-13.73-12.37-14.031-13.257l-.23-1.15c14.19-6.619 13.27-21.513 13.261-21.593v-8h2v8.017c-.012.151-.932 14.96 13.258 21.576zm1.978-9.887-1.345 6.721c-12.464-6.105-11.707-18.865-11.664-19.491v-8.091h3.586l10.376 10.376zm-4.83-19.1c.712-1.656 2.95-6.348 6.187-8.324a14.757 14.757 0 0 1 -2.448 12.063zm6.712 6.715-1.561-1.562a16.681 16.681 0 0 0 2.607-15.266 1 1 0 0 0 -1.308-.577c-4.065 1.626-6.819 6.684-7.966 9.173l-1.557-1.558c.53-1.871 3.02-8.36 12.408-10.552 1.166 2.233 4.511 10.417-2.623 20.342z"/><circle cx="41" cy="30" r="2"/><path d="m36.119 27.526 1.762.948c1.8-3.352 5.284-1.77 5.676-1.578l.89-1.791c-1.914-.956-6.118-1.682-8.328 2.421z"/><path d="m36.948 18.684-1.9.632c1.218 3.642 5.76 3.684 5.952 3.684v-2c-.033 0-3.288-.026-4.052-2.316z"/></g></svg>