<svg height="512" viewBox="0 0 64 64" width="512" xmlns="http://www.w3.org/2000/svg"><g id="Filled_outline" data-name="Filled outline"><path d="m60 23c-2-6 3-21-6-20-7.845.872-11.13 11.618-11.844 14.362a23.015 23.015 0 0 0 -20.312 0c-.714-2.744-3.999-13.49-11.844-14.362-9-1-4 14-6 20s1 11 5 9c.126-.063 0 4.556 0 6 0 0-4 13 1 17 4.07 3.256 7.477 3.2 10.761 3.065a22.986 22.986 0 0 0 22.478 0c3.284.134 6.69.19 10.759-3.065 4.976-3.981 1.04-16.87 1-16.994v-6.006c4.002 2 7.002-3 5.002-9z" fill="#e8e7d6"/><path d="m54 55c4.976-3.981 1.04-16.87 1-16.994v-6.006c4 2 7-3 5-9s3-21-6-20c-7.845.872-11.13 11.618-11.844 14.362a22.982 22.982 0 0 0 -4.382-1.62c-.645 5.737-1.851 23.899 8.226 27.258 7.777 2.592 8.411 8.542 7.08 12.682.303-.211.608-.434.92-.682z" fill="#394d5c"/><path d="m10 3c-9-1-4 14-6 20s1 11 5 9v6s-4 13 1 17c.311.249.617.472.921.684-1.332-4.141-.699-10.091 7.079-12.684 10.077-3.359 8.871-21.521 8.226-27.258a22.982 22.982 0 0 0 -4.382 1.62c-.714-2.744-3.999-13.49-11.844-14.362z" fill="#394d5c"/><path d="m18 20s-4-13-8-11-1 7-1 12 1 7 2 7 7-8 7-8z" fill="#f98c96"/><path d="m32 57a4 4 0 0 0 4-4v-1c-2.761 0-4-1.343-4-3 0 1.657-1.239 3-4 3v1a4 4 0 0 0 4 4z" fill="#dd3e46"/><path d="m36 44a4.406 4.406 0 0 1 -4 4 4.406 4.406 0 0 1 -4-4c0-1.657 1.791-2 4-2s4 .343 4 2z" fill="#394d5c"/><path d="m8 21c0 6.612 1.631 8 3 8 .487 0 1.5 0 7.8-8.4a1 1 0 0 0 .156-.894c-.316-1.027-3.193-10.077-6.88-11.654a2.918 2.918 0 0 0 -2.523.053c-3.4 1.7-2.754 5.11-2.124 8.406a24.34 24.34 0 0 1 .571 4.489zm2.447-11.1a.9.9 0 0 1 .41-.105 1.112 1.112 0 0 1 .433.1c2.044.875 4.441 6.35 5.6 9.92a65.681 65.681 0 0 1 -5.932 7.078c-.345-.46-.958-2.059-.958-5.893a26.113 26.113 0 0 0 -.607-4.864c-.654-3.428-.905-5.262 1.054-6.236z"/><path d="m8.056 33.371c0 .825-.02 1.905-.032 2.676-.011.712-.022 1.364-.024 1.8-.459 1.561-3.851 13.753 1.375 17.934 4.326 3.461 8.091 3.416 11.146 3.3a23.994 23.994 0 0 0 22.958 0c3.053.121 6.817.166 11.144-3.3 5.219-4.176 1.837-16.361 1.377-17.922v-4.478a4.111 4.111 0 0 0 3.479-.973c2.186-1.9 2.776-5.8 1.47-9.724-.607-1.821-.5-4.8-.395-7.689.168-4.649.342-9.456-2.135-11.754a5.471 5.471 0 0 0 -4.529-1.235c-7.575.842-11.13 9.8-12.379 13.956a24.031 24.031 0 0 0 -19.021 0c-1.25-4.157-4.8-13.114-12.38-13.956a5.475 5.475 0 0 0 -4.529 1.235c-2.481 2.298-2.303 7.105-2.135 11.759.1 2.885.212 5.868-.395 7.689-1.306 3.92-.716 7.828 1.47 9.724a4.117 4.117 0 0 0 3.535.958zm30.591-16.34a21.984 21.984 0 0 1 3.066 1.228 1 1 0 0 0 1.411-.645c.555-2.132 3.692-12.81 10.986-13.62a3.545 3.545 0 0 1 2.949.713c1.8 1.675 1.641 6.212 1.5 10.216-.116 3.2-.225 6.229.5 8.393 1.211 3.632.391 6.476-.883 7.58a2.286 2.286 0 0 1 -2.721.209 1 1 0 0 0 -1.455.895v6.006a1 1 0 0 0 .044.293c.9 2.934 2.432 10.321.583 14.242.12-4.124-1.992-8.384-8.311-10.49-8.783-2.928-8.265-18.629-7.669-25.02zm-6.647-1.031a21.989 21.989 0 0 1 4.692.507c-2.171 21.3 5.536 26.29 8.992 27.442 8.067 2.689 7.189 8.821 6.54 11.105-3.361 2.231-6.2 2.124-8.944 2.012a1.043 1.043 0 0 0 -.53.127 21.988 21.988 0 0 1 -21.5 0 1 1 0 0 0 -.489-.128h-.041c-2.749.114-5.584.22-8.944-2.011-.649-2.284-1.528-8.417 6.54-11.106 3.456-1.152 11.163-6.139 8.992-27.442a21.989 21.989 0 0 1 4.692-.506zm-27.051 7.316c.721-2.164.612-5.19.5-8.393-.145-4-.309-8.541 1.5-10.216a3.548 3.548 0 0 1 2.941-.713c7.294.81 10.432 11.488 10.987 13.62a1 1 0 0 0 1.41.645 21.984 21.984 0 0 1 3.066-1.228c.6 6.391 1.114 22.092-7.669 25.02-6.321 2.107-8.432 6.369-8.31 10.495-1.853-3.922-.319-11.316.582-14.252a1.007 1.007 0 0 0 .044-.294c0-.428.011-1.138.023-1.921.073-4.575.073-4.575-.486-4.926a1.012 1.012 0 0 0 -.984-.048 2.284 2.284 0 0 1 -2.721-.205c-1.274-1.108-2.094-3.952-.883-7.584z"/><path d="m33 49v-.126a5.54 5.54 0 0 0 4-4.874c0-3-3.763-3-5-3s-5 0-5 3a5.54 5.54 0 0 0 4 4.874v.126c0 1.74-1.879 2-3 2-2.29 0-4-1.056-4-2h-2c0 2.015 2.129 3.633 5 3.942v.058a5 5 0 0 0 10 0v-.058c2.871-.309 5-1.927 5-3.942h-2c0 .944-1.71 2-4 2-1.121 0-3-.26-3-2zm-4-5c0-.3 0-1 3-1s3 .7 3 1a3.409 3.409 0 0 1 -3 3 3.409 3.409 0 0 1 -3-3zm6 9a3 3 0 0 1 -6 0v-.076a5.508 5.508 0 0 0 2-.606v1.682h2v-1.682a5.508 5.508 0 0 0 2 .606z"/><path d="m16 48h2v2h-2z"/><path d="m18 52h2v2h-2z"/><path d="m21 45h2v2h-2z"/><path d="m41 45h2v2h-2z"/><path d="m44 50h2v2h-2z"/><path d="m48 48h2v2h-2z"/><path d="m27.512 39.859a9.185 9.185 0 0 1 8.973 0l1.03-1.714c-5.452-3.272-10.8-.137-11.03 0z"/><circle cx="18" cy="34" r="2"/><circle cx="45" cy="34" r="2"/><path d="m18.5 24.95h2v5.099h-2z" transform="matrix(.196 -.981 .981 .196 -11.29 41.228)"/><path d="m41.95 26.5h5.099v2h-5.099z" transform="matrix(.981 -.196 .196 .981 -4.529 9.261)"/><path d="m46 20s4-13 8-11 1 7 1 12-1 7-2 7-7-8-7-8z" fill="#f98c96"/><path d="m53 29c1.369 0 3-1.388 3-8a24.34 24.34 0 0 1 .571-4.489c.63-3.3 1.28-6.7-2.124-8.406a2.915 2.915 0 0 0 -2.523-.053c-3.687 1.577-6.564 10.627-6.88 11.654a1 1 0 0 0 .156.894c6.3 8.4 7.313 8.4 7.8 8.4zm-.29-19.109a.914.914 0 0 1 .843 0c1.959.979 1.708 2.813 1.054 6.241a26.113 26.113 0 0 0 -.607 4.868c0 3.96-.655 5.535-.925 5.916a63.914 63.914 0 0 1 -5.966-7.106c1.158-3.57 3.554-9.043 5.601-9.919z"/></g></svg>