<svg height="512" viewBox="0 0 64 64" width="512" xmlns="http://www.w3.org/2000/svg"><g id="Filled_outline" data-name="Filled outline"><path d="m32 10a29.145 29.145 0 0 0 -15 4v22l5 10c.605 1.967 2.125 3 5 3a3.777 3.777 0 0 0 4-3l1-4 1 4a3.777 3.777 0 0 0 4 3c2.875 0 4.4-1.033 5-3l5-10v-22a29.145 29.145 0 0 0 -15-4z" fill="#e8e7d6"/><path d="m26 32c2.018-.712 4-2.86 4-5v-16.927a28.816 28.816 0 0 0 -13 3.927v22l1.661 3.322a11.115 11.115 0 0 1 7.339-7.322z" fill="#d3843d"/><path d="m38 32c-2.018-.712-4-2.86-4-5v-16.927a28.816 28.816 0 0 1 13 3.927v22l-1.661 3.322a11.115 11.115 0 0 0 -7.339-7.322z" fill="#d3843d"/><path d="m33 46-1-4-1 4a3.777 3.777 0 0 1 -4 3v1a5 5 0 0 0 10 0v-1a3.777 3.777 0 0 1 -4-3z" fill="#f98c96"/><path d="m36 37c0 1.657-2.343 5-4 5s-4-3.343-4-5 2.343-2 4-2 4 .343 4 2z" fill="#394d5c"/><path d="m17 14-10 8c-7 6-2.985 7.786-1 10 1.083 1.208 4 4.37 4 8 0 6.39 7 9.435 7-3.346z" fill="#ad6327"/><path d="m47 14 10 8c7 6 2.985 7.786 1 10-1.083 1.208-4 4.37-4 8 0 6.39-7 9.435-7-3.346z" fill="#ad6327"/><path d="m26 21c0 1.105-1.343 1-3 1s-2-1.895-2-3 1.343-1 3-1 2 1.893 2 3z" fill="#143441"/><path d="m38 21c0 1.105 1.343 1 3 1s2-1.895 2-3-1.343-1-3-1-2 1.893-2 3z" fill="#143441"/><circle cx="25" cy="27" r="2"/><circle cx="39" cy="27" r="2"/><path d="m4.405 31.818c.3.284.593.562.85.849l.079.088c1.097 1.222 3.666 4.082 3.666 7.245 0 3.593 2 6.517 4.458 6.517.791 0 2.275-.337 3.337-2.59a13.089 13.089 0 0 0 1.033-4.034l3.242 6.483c.69 2.139 2.35 3.334 4.93 3.574v.05a6 6 0 0 0 12 0v-.05c2.58-.24 4.24-1.435 4.93-3.574l3.242-6.483a13.089 13.089 0 0 0 1.033 4.034c1.062 2.253 2.546 2.59 3.337 2.59 2.458 0 4.458-2.924 4.458-6.517 0-3.163 2.569-6.023 3.666-7.245l.079-.088c.257-.287.552-.565.85-.849 1.074-1.021 2.411-2.293 2.362-4.2-.049-1.873-1.417-3.9-4.332-6.4l-10-8-.07-.051a29.933 29.933 0 0 0 -15.555-4.167 29.933 29.933 0 0 0 -15.555 4.168l-.07.051-10.026 8.022c-2.889 2.476-4.257 4.5-4.306 6.375-.049 1.909 1.288 3.184 2.362 4.202zm43.595-15.737 8.349 6.678c2.362 2.025 3.576 3.676 3.608 4.908.026 1.022-.832 1.838-1.74 2.7-.338.321-.67.638-.962.964l-.077.086c-1.25 1.394-4.178 4.654-4.178 8.583 0 2.757-1.456 4.517-2.458 4.517-.738 0-1.274-.9-1.528-1.443a15.35 15.35 0 0 1 -1.014-6.42zm-12 33.919a4 4 0 0 1 -8 0v-.078a4.505 4.505 0 0 0 3-1.722v3.8h2v-3.79a4.509 4.509 0 0 0 3 1.712zm-7-13c0-.687 1.555-1 3-1s3 .313 3 1c0 1.271-2.047 4-3 4s-3-2.729-3-4zm6-25.839a28.823 28.823 0 0 1 11 3.4v21.2l-.574 1.147a12.2 12.2 0 0 0 -7.093-5.854c-1.61-.565-3.333-2.331-3.333-4.054zm-4-.138c.33-.012.661-.023 1-.023s.67.011 1 .023v15.977c0 2.689 2.373 5.133 4.667 5.943a10.107 10.107 0 0 1 6.584 6.32l-3.146 6.29a1.134 1.134 0 0 0 -.061.153c-.344 1.134-1.103 2.294-4.044 2.294a2.785 2.785 0 0 1 -3.03-2.243l-.77-3.072a7.915 7.915 0 0 0 3.8-5.685c0-.9-.487-3-5-3s-5 2.1-5 3a7.915 7.915 0 0 0 3.8 5.685l-.759 3.04a2.8 2.8 0 0 1 -3.041 2.275c-2.941 0-3.695-1.16-4.044-2.294a1.134 1.134 0 0 0 -.061-.153l-3.146-6.29a10.107 10.107 0 0 1 6.584-6.32c2.294-.81 4.667-3.254 4.667-5.943zm-13 3.54a28.823 28.823 0 0 1 11-3.4v15.837c0 1.723-1.723 3.489-3.333 4.057a12.2 12.2 0 0 0 -7.093 5.854l-.574-1.147zm-10.375 8.218 8.375-6.7v20.573a15.35 15.35 0 0 1 -1.014 6.42c-.254.539-.79 1.443-1.528 1.443-1 0-2.458-1.76-2.458-4.517 0-3.929-2.928-7.189-4.178-8.581l-.077-.086c-.292-.326-.624-.643-.962-.964-.908-.864-1.766-1.68-1.74-2.7.032-1.234 1.246-2.885 3.582-4.888z"/><path d="m23 23h.758a3.715 3.715 0 0 0 2.721-.681 1.8 1.8 0 0 0 .521-1.319c0-2.43-1.178-4-3-4h-.393c-1.288-.007-2.391-.013-3.086.68a1.8 1.8 0 0 0 -.521 1.32c0 2.427 1.178 4 3 4zm.6-4h.4c.89 0 .99 1.457 1 1.919a8.247 8.247 0 0 1 -1.6.081h-.4c-.878 0-.987-1.419-1-1.92a8.412 8.412 0 0 1 1.6-.08z"/><path d="m40.242 23h.758c1.822 0 3-1.571 3-4a1.8 1.8 0 0 0 -.521-1.322c-.7-.692-1.8-.683-3.086-.68l-.393.002c-1.822 0-3 1.57-3 4a1.8 1.8 0 0 0 .521 1.321 3.715 3.715 0 0 0 2.721.679zm-.242-4h.4a8.181 8.181 0 0 1 1.6.082c-.009.462-.108 1.92-1 1.92h-.4a8.332 8.332 0 0 1 -1.6-.082c.01-.465.11-1.92 1-1.92z"/><path d="m36 43h2v2h-2z"/><path d="m39 40h2v2h-2z"/><path d="m23 39h2v2h-2z"/><path d="m26 43h2v2h-2z"/></g></svg>