<?xml version="1.0" encoding="UTF-8"?>
<svg xmlns="http://www.w3.org/2000/svg" viewBox="0 0 64 64" width="512" height="512"><g id="Filled_outline" data-name="Filled outline"><path d="M16,44l1-4V21s-6.778-2.815-10,9c0,0-1.852,10-4,10H8a4.842,4.842,0,0,0,1,5l3,1h4l.01,0A4.378,4.378,0,0,1,16,44Z" style="fill:#66342e"/><path d="M48,44l-1-4V21s6.778-2.815,10,9c0,0,1.852,10,4,10H56a4.842,4.842,0,0,1-1,5l-3,1H48l-.01,0A4.378,4.378,0,0,0,48,44Z" style="fill:#66342e"/><path d="M47,40V21l2-4a32.5,32.5,0,0,0-7,1V14c-5.37,1.074-6,5-6,5V14l-4,4-4-4v5s-.63-3.926-6-5v4a32.5,32.5,0,0,0-7-1l2,4V40l-1,4a3.991,3.991,0,0,0,4,5H44a3.991,3.991,0,0,0,4-5Z" style="fill:#d3843d"/><polygon points="41 42 43 38 40 37 39 33 36 34.037 32 31 28 34.037 25 33 24 37 21 38 23 42 20 44 23 49 41 49 44 44 41 42" style="fill:#e8e7d6"/><path d="M36,38c0,1.449-1.827,4-4,4s-4-2.551-4-4,1.827-2,4-2S36,36.551,36,38Z" style="fill:#143441"/><path d="M21,38l3-1,1-4,3,1.037,1.975-1.5C29.8,30.45,28.4,22,17,22V40l6,2Z" style="fill:#ad6327"/><path d="M42.975,38l-3-1-1-4-3,1.037L34,32.537C34.174,30.45,35.58,22,46.975,22V40l-6,2Z" style="fill:#ad6327"/><path d="M36,44a2.95,2.95,0,0,1-2.407-1.341A5.824,5.824,0,0,0,37,38c0-.9-.487-3-5-3s-5,2.1-5,3a5.824,5.824,0,0,0,3.407,4.659A2.95,2.95,0,0,1,28,44c-1.7,0-2-.645-2-2H24c0,2.654,1.346,4,4,4a4.992,4.992,0,0,0,4-2.139A4.992,4.992,0,0,0,36,46c2.654,0,4-1.346,4-4H38C38,43.355,37.7,44,36,44Zm-4-3c-1.581,0-3-2.038-3-3,0-.589,1.233-1,3-1s3,.411,3,1C35,38.962,33.581,41,32,41Z"/><path d="M61.215,39.023A.931.931,0,0,0,61.064,39c-.824-.468-2.254-4.724-3.1-9.265-1.317-4.827-3.388-7.963-6.156-9.319a6.8,6.8,0,0,0-3.05-.7L49.9,17.447A1,1,0,0,0,49,16a30.466,30.466,0,0,0-6,.738V14a1,1,0,0,0-1.2-.98A9.374,9.374,0,0,0,37,15.371V14a1,1,0,0,0-1.707-.707L32,16.586l-3.293-3.293A1,1,0,0,0,27,14v1.371a9.374,9.374,0,0,0-4.8-2.351A1,1,0,0,0,21,14v2.738A30.466,30.466,0,0,0,15,16a1,1,0,0,0-.895,1.447l1.136,2.271a6.8,6.8,0,0,0-3.05.7c-2.768,1.356-4.839,4.492-6.174,9.4C5.183,34.325,3.73,38.623,3,39a1,1,0,0,0,0,2H6.742a5.5,5.5,0,0,0,1.551,4.707,1,1,0,0,0,.391.242l3,1A1,1,0,0,0,12,47h3.3a4.834,4.834,0,0,0,.671,1.137A5.11,5.11,0,0,0,20,50H44a5.11,5.11,0,0,0,4.03-1.863A4.81,4.81,0,0,0,48.7,47H52a1,1,0,0,0,.316-.051l3-1a1,1,0,0,0,.391-.242A5.5,5.5,0,0,0,57.258,41H61a1.032,1.032,0,0,0,1.045-.992A.959.959,0,0,0,61.215,39.023ZM16,39.877l-.977,3.906A5.633,5.633,0,0,0,14.891,45H13.663c-.407-1.082-1.1-3.548.169-5.445l-1.664-1.11a7.674,7.674,0,0,0-.678,6.331l-1.935-.645a3.846,3.846,0,0,1-.627-3.757A1,1,0,0,0,8,39H5.354a32.31,32.31,0,0,0,2.611-8.737c1.135-4.162,2.887-6.938,5.066-8.028A4.812,4.812,0,0,1,16,21.768ZM20,48a2.992,2.992,0,0,1-3.03-3.757l.738-2.953L20.744,42.3l-1.3.866a1,1,0,0,0-.3,1.347L21.234,48Zm.105-9.553.921,1.841L18,39.279V23.024c8.794.425,10.565,6.457,10.919,9.06l-1.1.833-2.494-.862a1,1,0,0,0-1.3.7l-.867,3.468-2.479.826a1,1,0,0,0-.579,1.4ZM40.434,48H23.566l-2.218-3.7,2.207-1.471a1,1,0,0,0,.34-1.279L22.41,38.584l1.906-.635a1,1,0,0,0,.654-.706l.735-2.941,1.968.68a1,1,0,0,0,.931-.149L32,32.255l3.4,2.578a1,1,0,0,0,.931.149L38.3,34.3l.735,2.941a1,1,0,0,0,.654.706l1.906.635L40.1,41.553a1,1,0,0,0,.34,1.279L42.652,44.3Zm3.49-10.383a1.007,1.007,0,0,0-.608-.566l-2.479-.826-.867-3.468a1,1,0,0,0-1.3-.7l-2.494.862-1.119-.849c.358-2.612,2.139-8.62,10.916-9.044V39.279l-3,1,.916-1.831A1,1,0,0,0,43.924,37.617Zm2.547,9.268A3.084,3.084,0,0,1,44,48H42.766l2.091-3.485a1,1,0,0,0-.3-1.347L43.248,42.3l3.042-1.014.733,2.934A3.1,3.1,0,0,1,46.471,46.885Zm-.366-26.332A1,1,0,0,0,46,21v.024c-9.3.4-11.962,6.427-12.716,9.7L32.6,30.2a1,1,0,0,0-1.208,0l-.7.531c-.749-3.261-3.4-9.3-12.7-9.711V21a1,1,0,0,0-.105-.447L16.658,18.08a35.117,35.117,0,0,1,5.086.887A1,1,0,0,0,23,18V15.3c3.486,1.167,3.992,3.75,4.013,3.862A1,1,0,0,0,29,19V16.414l2.293,2.293a1,1,0,0,0,1.414,0L35,16.414V19a1,1,0,0,0,.912.991,1.008,1.008,0,0,0,1.074-.824c.022-.12.528-2.7,4.014-3.871V18a1,1,0,0,0,1.256.967,35.022,35.022,0,0,1,5.086-.887ZM56,39a1,1,0,0,0-.93,1.368,3.849,3.849,0,0,1-.625,3.763l-1.935.645a7.674,7.674,0,0,0-.678-6.331l-1.664,1.11c1.256,1.884.571,4.358.166,5.445H49.105a5.651,5.651,0,0,0-.135-1.243L48,39.877V21.771a4.853,4.853,0,0,1,2.929.443c2.2,1.077,3.964,3.86,5.088,7.968.837,4.524,1.754,7.239,2.633,8.818Z"/><circle cx="41" cy="30" r="2"/><circle cx="23" cy="30" r="2"/></g></svg>
