<svg height="512" viewBox="0 0 64 64" width="512" xmlns="http://www.w3.org/2000/svg"><g id="Filled_outline" data-name="Filled outline"><path d="m32.307 44h-.614a6.95 6.95 0 0 1 -5.693 3v3a6 6 0 0 0 6 6 6 6 0 0 0 6-6v-3a6.95 6.95 0 0 1 -5.693-3z" fill="#f98c96"/><path d="m34 13h14l1 23c.134 2.492-.758 4.073-3 5l-3 1.44v-8.44l-9-4z" fill="#ad6327"/><path d="m34 30v-17h-4v17l-9 4v9c0 1.588 1.824 4 5 4s6-2.412 6-4c0 1.588 2.824 4 6 4s5-2.412 5-4v-9z" fill="#e8e7d6"/><path d="m30 13h-14l-1 23c-.134 2.492.758 4.073 3 5l3 1.44v-8.44l9-4z" fill="#ad6327"/><path d="m16 13s-7.433-6.237-8 0c-1 11-7.929 14.714-4 19 2.75 3 3 10.708 8 5l3.1-3.375z" fill="#301a12"/><path d="m43 34 1-21h-10v17z" fill="#394d5c"/><path d="m21 34 9-4v-17h-10z" fill="#394d5c"/><path d="m48 13s7.433-6.237 8 0c1 11 7.929 14.714 4 19-2.75 3-3 10.708-8 5l-3.1-3.375z" fill="#301a12"/><path d="m37 37c0 1.927-3.073 5-5 5s-5-3.073-5-5 3.073-3 5-3 5 1.073 5 3z" fill="#143441"/><circle cx="25" cy="25" r="2"/><path d="m57 12.909c-.163-1.791-.852-2.949-2.049-3.442-2.494-1.034-6.091 1.566-7.3 2.533h-31.297c-1.211-.966-4.807-3.56-7.3-2.533-1.198.493-1.887 1.651-2.054 3.442a29.6 29.6 0 0 1 -3.41 10.969c-1.628 3.341-2.913 5.98-.331 8.8a12.825 12.825 0 0 1 1.82 3.215c.9 1.992 1.758 3.874 3.506 4.132a2.511 2.511 0 0 0 .378.028c1.15 0 2.363-.769 3.769-2.374l1.268-1.379a5.42 5.42 0 0 0 3.565 5.6l2.438 1.17a5.581 5.581 0 0 0 5 4.852v2.078a7 7 0 0 0 14 0v-2.077a5.582 5.582 0 0 0 5-4.853l2.386-1.146a5.444 5.444 0 0 0 3.611-5.624l1.25 1.359c1.42 1.621 2.635 2.392 3.786 2.392a2.508 2.508 0 0 0 .377-.028c1.748-.258 2.6-2.14 3.506-4.132a12.825 12.825 0 0 1 1.82-3.215c2.582-2.818 1.3-5.457-.331-8.8a29.6 29.6 0 0 1 -3.408-10.967zm-42.88 20.308-2.872 3.124c-1.438 1.642-2.135 1.739-2.366 1.7-.67-.1-1.4-1.7-1.978-2.982a14.157 14.157 0 0 0 -2.167-3.739c-1.6-1.744-.994-3.186.655-6.571a31.712 31.712 0 0 0 3.608-11.658c.09-.991.365-1.588.818-1.776a1.4 1.4 0 0 1 .526-.091c1.242 0 3.252 1.159 4.639 2.237zm5.88 7.635-1.618-.776c-1.806-.747-2.5-1.912-2.383-4.033l.959-22.043h2.088l.954 20.031zm1.049-26.852h7.951v15.351l-7.07 3.141zm15.951 36a5 5 0 0 1 -10 0v-2.072a8.351 8.351 0 0 0 4-1.7v6.772h2v-6.767a8.351 8.351 0 0 0 4 1.7zm-5-9c-1.383 0-4-2.617-4-4 0-1.03 2.254-2 4-2s4 .97 4 2c0 1.383-2.617 4-4 4zm10 2c0 1.047-1.374 3-4 3-2.783 0-5-2.154-5-3v-.169c2.322-.728 5-3.682 5-5.831 0-2.61-3.484-4-6-4s-6 1.39-6 4c0 2.149 2.678 5.1 5 5.831v.169c0 .846-2.217 3-5 3-2.626 0-4-1.953-4-3v-8.35l9-4v-16.65h2v16.649l.59.262 8.41 3.739zm.07-10.508-7.07-3.141v-15.351h7.951zm3.5 7.607-1.57.752v-6.824l.954-20.027h2.088l.958 22.054c.114 2.11-.576 3.275-2.433 4.046zm13.7-8.775a14.157 14.157 0 0 0 -2.17 3.739c-.582 1.285-1.308 2.882-1.978 2.982-.228.037-.927-.062-2.382-1.722l-2.86-3.106-.859-19.756c1.606-1.249 4.046-2.605 5.165-2.146.453.188.728.785.818 1.776a31.712 31.712 0 0 0 3.6 11.662c1.653 3.385 2.257 4.827.659 6.571z"/><circle cx="39" cy="25" r="2"/></g></svg>