<?xml version="1.0" encoding="UTF-8"?>
<svg xmlns="http://www.w3.org/2000/svg" viewBox="0 0 64 64" width="512" height="512"><g id="Filled_outline" data-name="Filled outline"><path d="M15,3s-4,8-1,16l6-5Z" style="fill:#e8e7d6"/><path d="M49,3s4,8,1,16l-6-5Z" style="fill:#e8e7d6"/><path d="M54,25a22.586,22.586,0,0,0-9.159-12.85L49,3,40.445,9.844A25.171,25.171,0,0,0,32,8a25.171,25.171,0,0,0-8.445,1.844L15,3l4.159,9.15A22.586,22.586,0,0,0,10,25l4-1a54.487,54.487,0,0,0-3,17l4-3s1,10,7,16l3-4,7,11,7-11,3,4c6-6,7-16,7-16l4,3a54.487,54.487,0,0,0-3-17Z" style="fill:#d3843d"/><path d="M42,54c6-6,7-16,7-16l4,3a47.625,47.625,0,0,0-.583-7.2c-2.031-1.825-4.476-2.429-8.417.2-6,4-5-2-12-2s-6,6-12,2c-3.941-2.628-6.386-2.024-8.417-.2A47.625,47.625,0,0,0,11,41l4-3s1,10,7,16l3-4,7,11,7-11Z" style="fill:#e8e7d6"/><path d="M32,44a4,4,0,0,0,4-4V39c-2.761,0-4-1.343-4-3,0,1.657-1.239,3-4,3v1A4,4,0,0,0,32,44Z" style="fill:#f98c96"/><path d="M35,33.333a3.021,3.021,0,0,1-6,0C29,32.229,30.343,32,32,32S35,32.229,35,33.333Z" style="fill:#143441"/><path d="M51.529,17.369C53.42,9.778,50.043,2.85,49.9,2.554a1.769,1.769,0,0,0-.281-.343,1,1,0,0,0-1.239.008L40.27,8.7A25.792,25.792,0,0,0,32,7,25.793,25.793,0,0,0,23.73,8.7l-8.1-6.484a1,1,0,0,0-1.239-.008,1.769,1.769,0,0,0-.281.343c-.148.3-3.525,7.224-1.634,14.815a25.724,25.724,0,0,0-3.43,7.349,1,1,0,0,0,1.2,1.252l2.231-.558A55.016,55.016,0,0,0,10,41a1,1,0,0,0,1.6.8l2.657-1.992c.572,3.2,2.305,10.169,7.036,14.9A1,1,0,0,0,22.8,54.6l2.133-2.843,6.223,9.78a1,1,0,0,0,1.688,0l6.223-9.78L41.2,54.6a1,1,0,0,0,.729.4.976.976,0,0,0,.778-.29c4.73-4.73,6.464-11.7,7.036-14.9L52.4,41.8A1,1,0,0,0,54,41a55.016,55.016,0,0,0-2.474-15.588l2.231.558a1,1,0,0,0,1.2-1.252A25.724,25.724,0,0,0,51.529,17.369Zm-2.6-11.8A21.762,21.762,0,0,1,49.9,15.3,22.622,22.622,0,0,0,46.1,11.805Zm-33.858,0L17.9,11.805A22.622,22.622,0,0,0,14.1,15.3,21.762,21.762,0,0,1,15.071,5.572Zm36.878,33.39L49.6,37.2a1,1,0,0,0-1.595.7c-.009.092-.934,8.805-5.922,14.544L39.8,49.4a.95.95,0,0,0-.839-.4,1,1,0,0,0-.8.462L32,59.138l-6.156-9.675a1,1,0,0,0-.8-.462H25a1,1,0,0,0-.8.4l-2.283,3.044C16.94,46.715,16,37.992,16,37.9a1,1,0,0,0-1.595-.7l-2.349,1.762c.08-1.616.251-3.178.468-4.647,1.457-1.208,3.356-1.863,6.926.517a8.082,8.082,0,0,0,3.588,1.532c.146,1.57,1.26,3.227,3.967,3.56V40a5,5,0,0,0,10,0v-.076c2.709-.334,3.823-1.993,3.967-3.565a8.062,8.062,0,0,0,3.588-1.527c3.57-2.381,5.468-1.724,6.926-.517C51.7,35.784,51.869,37.346,51.949,38.962ZM33.182,36.786a4.253,4.253,0,0,0,2.733-2.807,13.678,13.678,0,0,1,1.358.945A9.19,9.19,0,0,0,39,36.02C38.981,37.74,37.116,38,36,38,35.08,38,33.666,37.811,33.182,36.786ZM35,39.924V40a3,3,0,0,1-6,0v-.076a4.731,4.731,0,0,0,3-1.373A4.731,4.731,0,0,0,35,39.924ZM32,35a2.183,2.183,0,0,1-2.006-1.689.81.81,0,0,1,.407-.174,9.44,9.44,0,0,1,3.228,0,.866.866,0,0,1,.368.152.212.212,0,0,1,0,.04A2.175,2.175,0,0,1,32,35Zm-1.182,1.786C30.334,37.811,28.92,38,28,38c-1.116,0-2.982-.26-3-1.981a9.234,9.234,0,0,0,1.724-1.095,13.678,13.678,0,0,1,1.358-.945A4.253,4.253,0,0,0,30.818,36.786ZM50.243,23.03a1,1,0,0,0-1.18,1.321,52.482,52.482,0,0,1,1.97,7.358c-2.223-.959-4.686-.476-7.588,1.459-2.759,1.841-3.448,1.316-4.959.165a9.872,9.872,0,0,0-4.558-2.161A8.827,8.827,0,0,0,32,31a8.827,8.827,0,0,0-1.928.172,9.872,9.872,0,0,0-4.558,2.161c-1.51,1.151-2.2,1.676-4.959-.165-2.9-1.935-5.365-2.418-7.588-1.459a52.532,52.532,0,0,1,1.97-7.358,1,1,0,0,0-1.18-1.321l-2.238.56a21.267,21.267,0,0,1,8.2-10.61,1,1,0,0,0,.354-1.245L17.641,6.394l5.29,4.231a1,1,0,0,0,1,.146A24.5,24.5,0,0,1,32,9a24.491,24.491,0,0,1,8.074,1.771.993.993,0,0,0,1-.146l5.29-4.231-2.428,5.341a1,1,0,0,0,.354,1.245,21.267,21.267,0,0,1,8.2,10.61Z"/><circle cx="24" cy="30" r="2"/><circle cx="40" cy="30" r="2"/></g></svg>
