<?xml version="1.0" encoding="UTF-8"?>
<svg xmlns="http://www.w3.org/2000/svg" viewBox="0 0 64 64" width="512" height="512"><g id="Filled_outline" data-name="Filled outline"><path d="M27,19a8,8,0,0,0-8,8V47c0,11,6,10.148,6,14l3-8,4,7,4-7,3,8c0-3.852,6-3,6-14V27a8,8,0,0,0-8-8Z" style="fill:#d3843d"/><path d="M32,48a4,4,0,0,0,4-4V43c-2.761,0-4-1.343-4-3,0,1.657-1.239,3-4,3v1A4,4,0,0,0,32,48Z" style="fill:#f98c96"/><path d="M10,21S5.306,9.735,8,3c0,0,4,1,10,9Z" style="fill:#66342e"/><path d="M32,19H27a8,8,0,0,0-8,8V60s-6-3.959-6-8c0,0-2.653.959-4,5a14.4,14.4,0,0,1,1-13c4.041-6.735-1.347-18.959,0-23l8-9H28a3.971,3.971,0,0,1,4,4Z" style="fill:#ad6327"/><path d="M54,21S58.694,9.735,56,3c0,0-4,1-10,9Z" style="fill:#66342e"/><path d="M32,19h5a8,8,0,0,1,8,8V60s6-3.959,6-8c0,0,2.653.959,4,5a14.4,14.4,0,0,0-1-13c-4.041-6.735,1.347-18.959,0-23l-8-9H36a3.971,3.971,0,0,0-4,4Z" style="fill:#a05924"/><path d="M36,35a4.406,4.406,0,0,1-4,4,4.406,4.406,0,0,1-4-4c0-1.657,1.791-2,4-2S36,33.343,36,35Z" style="fill:#143441"/><path d="M56.929,2.629a1,1,0,0,0-1.172-.6c-.174.043-4.275,1.157-10.246,8.97H36A4.947,4.947,0,0,0,32,13,4.947,4.947,0,0,0,28,11H18.489C12.518,3.187,8.417,2.073,8.243,2.03a1,1,0,0,0-1.172.6C4.476,9.119,8.207,19.19,8.955,21.082c-.421,1.81.038,4.513.578,7.624.847,4.883,1.9,10.959-.39,14.779A15.3,15.3,0,0,0,8.1,57.437a1,1,0,0,0,1.848-.121,8.1,8.1,0,0,1,2.309-3.67c1.175,3.838,5.96,7.037,6.191,7.189A1,1,0,0,0,20,60V55.7a13.824,13.824,0,0,0,2.443,2.827C23.5,59.522,24,60.042,24,61a1,1,0,0,0,1.937.352l2.251-6.006,2.944,5.15a1.04,1.04,0,0,0,1.736,0l2.944-5.15,2.251,6.006A1,1,0,0,0,39,62a.974.974,0,0,0,.178-.016A1,1,0,0,0,40,61c0-.958.505-1.478,1.557-2.469A13.824,13.824,0,0,0,44,55.7V60a1,1,0,0,0,1.551.835c.231-.152,5.01-3.347,6.188-7.181a8.117,8.117,0,0,1,2.312,3.662,1,1,0,0,0,1.848.121,15.3,15.3,0,0,0-1.042-13.952c-2.292-3.82-1.237-9.9-.39-14.779.54-3.111,1-5.814.578-7.624C55.793,19.19,59.524,9.119,56.929,2.629ZM10.355,19.1C9.3,16.079,7.263,9.209,8.6,4.344c1.366.714,4.277,2.662,8.1,7.607l-1,1.129L11.768,8.359,10.232,9.641l4.126,4.951ZM18,27V57.993c-1.773-1.486-4-3.85-4-5.993a1,1,0,0,0-1.34-.94,7.617,7.617,0,0,0-3.486,3.193,13.387,13.387,0,0,1,1.683-9.738c2.676-4.459,1.551-10.942.646-16.151-.488-2.818-.952-5.487-.607-6.867L18.449,13H28a2.968,2.968,0,0,1,3,3v2H27A9.01,9.01,0,0,0,18,27Zm26,6.382a9.7,9.7,0,0,0-4.835-2.368l-.332,1.972C39.044,33.022,44,33.919,44,38v9c0,6.479-2.115,8.474-3.814,10.075a13.288,13.288,0,0,0-1.148,1.177l-2.1-5.6a1,1,0,0,0-1.8-.144L32,57.984,28.868,52.5a1,1,0,0,0-1.8.144l-2.1,5.6a13.288,13.288,0,0,0-1.148-1.177C22.115,55.474,20,53.479,20,47V38c0-4.081,4.956-4.978,5.167-5.014L25,32l-.165-.986A9.7,9.7,0,0,0,20,33.382V27a7.008,7.008,0,0,1,7-7H37a7.008,7.008,0,0,1,7,7ZM54.826,54.253A7.617,7.617,0,0,0,51.34,51.06,1,1,0,0,0,50,52c0,2.136-2.227,4.5-4,5.99V27a9.01,9.01,0,0,0-9-9H33V16a2.968,2.968,0,0,1,3-3h9.551L53.1,21.5c.345,1.38-.119,4.049-.607,6.867-.905,5.209-2.03,11.692.646,16.151A13.387,13.387,0,0,1,54.826,54.253ZM53.645,19.1l-4-4.5,4.126-4.951L52.232,8.359,48.3,13.08l-1-1.129c3.83-4.95,6.743-6.9,8.1-7.608C56.734,9.2,54.7,16.076,53.645,19.1Z"/><circle cx="37" cy="29" r="2"/><circle cx="27" cy="29" r="2"/><path d="M40,40c0,.944-1.71,2-4,2-1.121,0-3-.26-3-2v-.126A5.54,5.54,0,0,0,37,35c0-3-3.763-3-5-3s-5,0-5,3a5.54,5.54,0,0,0,4,4.874V40c0,1.74-1.879,2-3,2-2.29,0-4-1.056-4-2H22c0,2.015,2.129,3.633,5,3.942V44a5,5,0,0,0,10,0v-.058c2.871-.309,5-1.927,5-3.942ZM29,35c0-.3,0-1,3-1s3,.7,3,1a3.409,3.409,0,0,1-3,3A3.409,3.409,0,0,1,29,35Zm6,9a3,3,0,0,1-6,0v-.076a5.508,5.508,0,0,0,2-.606V45h2V43.318a5.508,5.508,0,0,0,2,.606Z"/></g></svg>
