<svg height="512" viewBox="0 0 64 64" width="512" xmlns="http://www.w3.org/2000/svg"><g id="Filled_outline" data-name="Filled outline"><path d="m22 23s1-2-4-6-12-11-14-8 0 10 0 14 3 6 4 10 7 3 7 3z" fill="#d3843d"/><path d="m20 26s-1-5-4-6-5-5-7-5-2 1-1 6 3 6 3 9 6 3 6 3z" fill="#f4f4e6"/><path d="m42 23s-1-2 4-6 12-11 14-8 0 10 0 14-3 6-4 10-7 3-7 3z" fill="#d3843d"/><path d="m44 26s1-5 4-6 5-5 7-5 2 1 1 6-3 6-3 9-6 3-6 3z" fill="#f4f4e6"/><circle cx="32" cy="37" fill="#e8e7d6" r="17"/><path d="m15 37a16.964 16.964 0 0 0 6.245 13.162c-.331-3.062 1.399-4.806 3.755-7.162 3-3 4-5 1-12-2.607-6.083-.684-9.143-.136-9.84a16.992 16.992 0 0 0 -10.864 15.84z" fill="#f9bb4b"/><path d="m38.136 21.16c.548.7 2.471 3.757-.136 9.84-3 7-2 9 1 12 2.356 2.356 4.086 4.1 3.755 7.162a16.985 16.985 0 0 0 -4.619-29z" fill="#f9bb4b"/><g fill="#143441"><circle cx="43" cy="38" r="2"/><circle cx="21" cy="38" r="2"/><path d="m36 45a4.406 4.406 0 0 1 -4 4 4.406 4.406 0 0 1 -4-4c0-1.657 1.791-2 4-2s4 .343 4 2z"/></g><path d="m37 45c0-3-3.763-3-5-3s-5 0-5 3a5.538 5.538 0 0 0 3.041 4.512 5.7 5.7 0 0 1 -2.041.488v2a6.677 6.677 0 0 0 4-1.393 6.677 6.677 0 0 0 4 1.393v-2a5.577 5.577 0 0 1 -2.046-.485 5.539 5.539 0 0 0 3.046-4.515zm-5 3a3.409 3.409 0 0 1 -3-3c0-.3 0-1 3-1s3 .7 3 1a3.409 3.409 0 0 1 -3 3z"/><path d="m59.027 7.3c-2.463-.362-5.853 2.346-10.745 6.5-1.007.854-1.99 1.688-2.907 2.421-2.844 2.275-3.928 4.038-4.291 5.268a17.836 17.836 0 0 0 -18.166 0c-.363-1.226-1.447-2.989-4.293-5.266-.917-.733-1.9-1.567-2.907-2.421-4.891-4.153-8.279-6.857-10.745-6.502a2.544 2.544 0 0 0 -1.8 1.142c-1.579 2.365-1.073 6.35-.573 10.205a37.832 37.832 0 0 1 .4 4.353 11.449 11.449 0 0 0 2.126 6.122 15.169 15.169 0 0 1 1.9 4.12c.832 3.327 4.23 3.872 6.365 3.871.219 0 .422-.006.61-.015a18 18 0 0 0 35.999.002c.188.009.391.015.61.015 2.135 0 5.534-.544 6.365-3.871a15.169 15.169 0 0 1 1.9-4.12 11.449 11.449 0 0 0 2.125-6.124 37.832 37.832 0 0 1 .4-4.353c.493-3.855 1-7.84-.571-10.2a2.544 2.544 0 0 0 -1.802-1.147zm-44.927 27.789c-1.435.1-4.544.026-5.134-2.331a17 17 0 0 0 -2.12-4.658c-.991-1.665-1.846-3.1-1.846-5.1a39.059 39.059 0 0 0 -.419-4.606c-.426-3.329-.909-7.1.251-8.839a.548.548 0 0 1 .42-.272c1.769-.261 6.044 3.387 9.172 6.039 1.023.868 2.021 1.715 2.951 2.459 3.3 2.641 3.792 4.342 3.7 4.823l-.109.2c-.25.2-.5.4-.736.6-.7-1.706-1.906-3.685-3.917-4.358a10.013 10.013 0 0 1 -3.484-2.634c-1.24-1.237-2.415-2.412-3.829-2.412a2.589 2.589 0 0 0 -2.128.792c-.829 1.01-.6 2.643.148 6.4a19.878 19.878 0 0 0 1.96 5.5 6.868 6.868 0 0 1 1.02 3.308c0 1.106.6 2.97 4.314 3.717-.084.453-.16.908-.214 1.372zm-2.1-5.089a8.627 8.627 0 0 0 -1.23-4.2 17.881 17.881 0 0 1 -1.79-5c-.3-1.5-.858-4.295-.577-4.73a1.326 1.326 0 0 1 .597-.07c.586 0 1.559.974 2.418 1.832a11.6 11.6 0 0 0 4.265 3.116c1.627.545 2.582 2.8 2.986 4a17.966 17.966 0 0 0 -3.889 6.823c-1.144-.226-2.78-.731-2.78-1.771zm4 7a15.991 15.991 0 0 1 7.881-13.762c-.4 1.812-.368 4.5 1.2 8.156 2.9 6.777 1.793 8.318-.788 10.9-1.806 1.806-3.422 3.427-3.925 5.66a15.926 15.926 0 0 1 -4.368-10.954zm16 16a15.9 15.9 0 0 1 -9.774-3.361c-.084-2.224 1.162-3.613 3.481-5.932 3.527-3.526 4.24-6.036 1.212-13.1-2.181-5.088-.963-7.773-.421-8.611a15.71 15.71 0 0 1 11 0c.541.838 1.76 3.523-.421 8.611-3.028 7.065-2.315 9.575 1.212 13.1 2.319 2.319 3.565 3.708 3.481 5.932a15.9 15.9 0 0 1 -9.77 3.361zm11.632-5.047c-.5-2.233-2.119-3.854-3.925-5.66-2.581-2.581-3.692-4.122-.788-10.9 1.568-3.658 1.6-6.344 1.2-8.156a15.94 15.94 0 0 1 3.513 24.715zm1.7-23c.4-1.2 1.359-3.456 2.985-4a11.6 11.6 0 0 0 4.266-3.116c.858-.863 1.831-1.837 2.417-1.837a1.906 1.906 0 0 1 .581.058c.3.457-.262 3.247-.561 4.746a17.881 17.881 0 0 1 -1.79 5 8.627 8.627 0 0 0 -1.23 4.196c0 1.04-1.636 1.545-2.78 1.772a17.966 17.966 0 0 0 -3.889-6.823zm14.088-6.555a39.059 39.059 0 0 0 -.42 4.602c0 2-.855 3.435-1.846 5.1a17 17 0 0 0 -2.124 4.658c-.587 2.345-3.7 2.423-5.134 2.33-.05-.464-.126-.919-.21-1.371 3.714-.747 4.314-2.611 4.314-3.717a6.868 6.868 0 0 1 1.02-3.3 19.878 19.878 0 0 0 1.96-5.5c.753-3.761.977-5.394.148-6.4a2.589 2.589 0 0 0 -2.128-.8c-1.414 0-2.589 1.175-3.832 2.418a10.007 10.007 0 0 1 -3.485 2.634c-2.01.673-3.221 2.652-3.916 4.358-.24-.208-.486-.408-.736-.6l-.109-.2c-.089-.481.4-2.182 3.7-4.823.93-.744 1.928-1.591 2.951-2.459 3.129-2.652 7.413-6.3 9.172-6.039a.55.55 0 0 1 .42.272c1.163 1.733.68 5.504.254 8.833z"/><path d="m40 38a3 3 0 1 0 3-3 3 3 0 0 0 -3 3zm4 0a1 1 0 1 1 -1-1 1 1 0 0 1 1 1z"/><path d="m21 35a3 3 0 1 0 3 3 3 3 0 0 0 -3-3zm0 4a1 1 0 1 1 1-1 1 1 0 0 1 -1 1z"/></g></svg>