<?xml version="1.0" encoding="UTF-8"?>
<svg xmlns="http://www.w3.org/2000/svg" viewBox="0 0 64 64" width="512" height="512"><g id="Filled_outline" data-name="Filled outline"><path d="M50,8c-5-2-6,3-6,3l7.185,11.177C52.014,22.949,55.506,26,59,26c3,0,1-5,2-11C61.986,9.082,55,10,50,8Z" style="fill:#394d5c"/><path d="M40,36a4,4,0,0,1-8,0,4,4,0,0,1-8,0l-7,8s1,5,4,7l2-5a29.142,29.142,0,0,0,9,10,29.142,29.142,0,0,0,9-10l2,5c3-2,4-7,4-7Z" style="fill:#e8e7d6"/><path d="M32,36a4,4,0,0,1-4,4v3a4,4,0,0,0,8,0V40A4,4,0,0,1,32,36Z" style="fill:#f98c96"/><path d="M48,25h5L44,11A35.412,35.412,0,0,0,32,9a35.412,35.412,0,0,0-12,2L11,25h5l-5,6s5.156-2.265,6-1a27.96,27.96,0,0,0-5,8s4.882-3.118,6-2c-2,3-1,8-1,8l7-8-3-3,8-12,.671-4.028A2.361,2.361,0,0,1,32,15h0a2.361,2.361,0,0,1,2.328,1.972L35,21l8,12-3,3,7,8s2-5-1-8c1.118-1.118,6,2,6,2a27.96,27.96,0,0,0-5-8c.844-1.265,6,1,6,1Z" style="fill:#5a6470"/><path d="M35,21l-.671-4.028A2.361,2.361,0,0,0,32,15h0a2.361,2.361,0,0,0-2.328,1.972L29,21,21,33l3,3a4,4,0,0,0,8,0,4,4,0,0,0,8,0l3-3Z" style="fill:#f4f4e6"/><path d="M36,30c0,1.657-2.343,4-4,4s-4-2.343-4-4,2.343-2,4-2S36,28.343,36,30Z" style="fill:#143441"/><path d="M27,17c0,1.1-1.343,1-3,1a3.428,3.428,0,0,1-3-3c0-1.105,1.343-1,3-1A3.427,3.427,0,0,1,27,17Z" style="fill:#f4f4e6"/><path d="M37,17c0,1.1,1.343,1,3,1a3.428,3.428,0,0,0,3-3c0-1.105-1.343-1-3-1A3.427,3.427,0,0,0,37,17Z" style="fill:#f4f4e6"/><path d="M20,11s-1-5-6-3S2.014,9.082,3,15c1,6-1,11,2,11,3.494,0,6.986-3.051,7.815-3.823Z" style="fill:#394d5c"/><path d="M37,30c0-.9-.487-3-5-3s-5,2.1-5,3c0,2.2,2.8,5,5,5S37,32.2,37,30Zm-5,3c-1.093,0-3-1.906-3-3,0-.688,1.555-1,3-1s3,.312,3,1C35,31.094,33.093,33,32,33Z"/><circle cx="23" cy="23" r="2"/><circle cx="41" cy="23" r="2"/><path d="M12,13l0-2a8.794,8.794,0,0,0-5.707,2.293,3.306,3.306,0,0,0-.7,4.265A3.678,3.678,0,0,1,6,19H8a5.452,5.452,0,0,0-.568-2.233c-.4-.934-.537-1.248.275-2.06A6.846,6.846,0,0,1,12,13Z"/><path d="M52,11v2a6.765,6.765,0,0,1,4.293,1.707c.812.812.676,1.126.275,2.06A5.452,5.452,0,0,0,56,19h2a3.678,3.678,0,0,1,.405-1.442,3.306,3.306,0,0,0-.7-4.265A8.794,8.794,0,0,0,52,11Z"/><path d="M54.679,8.234a26.52,26.52,0,0,1-4.307-1.163,5.4,5.4,0,0,0-4.723-.011,5.335,5.335,0,0,0-2.275,2.66,38.467,38.467,0,0,0-22.748,0,5.335,5.335,0,0,0-2.275-2.66,5.4,5.4,0,0,0-4.723.011A26.52,26.52,0,0,1,9.321,8.234c-3.831.813-8.174,1.734-7.307,6.93a31.162,31.162,0,0,1,.264,6.045c-.063,2.363-.109,4.07.873,5.078A2.472,2.472,0,0,0,5,27a10.5,10.5,0,0,0,5.1-1.578c.009.019.012.039.022.057A1,1,0,0,0,11,26h2.865l-3.633,4.359a1,1,0,0,0,1.17,1.557,19.209,19.209,0,0,1,3.631-1.2,31.405,31.405,0,0,0-3.962,6.911,1,1,0,0,0,1.467,1.214,18.764,18.764,0,0,1,3.887-1.931A15.184,15.184,0,0,0,16.02,44.2c.043.221,1.119,5.432,4.425,7.636a1,1,0,0,0,1.484-.461l1.24-3.1a29.9,29.9,0,0,0,8.276,8.563,1,1,0,0,0,1.11,0,29.9,29.9,0,0,0,8.276-8.563l1.24,3.1a1,1,0,0,0,1.484.461c3.12-2.08,4.252-6.831,4.407-7.547.23-.615,1.45-4.193-.014-7.242a20.055,20.055,0,0,1,3.514,1.8,1,1,0,0,0,1.467-1.214,31.361,31.361,0,0,0-3.961-6.91,19.264,19.264,0,0,1,3.63,1.2,1,1,0,0,0,1.17-1.557L50.135,26H53a1,1,0,0,0,.878-.521c.01-.018.013-.038.022-.057A10.5,10.5,0,0,0,59,27a2.472,2.472,0,0,0,1.849-.713c.982-1.008.936-2.715.873-5.078a31.162,31.162,0,0,1,.264-6.045C62.853,9.968,58.51,9.047,54.679,8.234ZM5,25c-.311,0-.39-.081-.416-.108-.393-.4-.349-2.043-.306-3.629a32.732,32.732,0,0,0-.292-6.427c-.5-3.01,1.273-3.695,5.75-4.646a28.3,28.3,0,0,0,4.636-1.261,3.544,3.544,0,0,1,3.016-.116,3.583,3.583,0,0,1,1.526,2.026L12.043,21.527C11.241,22.261,8.042,25,5,25ZM43.41,49.331l-1.481-3.7A1,1,0,0,0,41.042,45a.963.963,0,0,0-.937.552A28.4,28.4,0,0,1,32,54.786a28.557,28.557,0,0,1-8.106-9.234,1,1,0,0,0-1.823.077l-1.481,3.7a12.785,12.785,0,0,1-2.5-5.062l5.386-6.156A5.006,5.006,0,0,0,27,40.9V43a5,5,0,0,0,10,0V40.9a5.006,5.006,0,0,0,3.521-2.782l5.386,6.156A12.785,12.785,0,0,1,43.41,49.331ZM33,44V39.987a4.979,4.979,0,0,0,2,.905V43a3,3,0,0,1-6,0V40.892a4.979,4.979,0,0,0,2-.905V44Zm0-8a1,1,0,0,0-2,0,3,3,0,0,1-6,0,1,1,0,0,0-.293-.707l-2.42-2.42,7.545-11.318a.99.99,0,0,0,.154-.391l.672-4.028a1.361,1.361,0,0,1,2.684,0l.672,4.028a.99.99,0,0,0,.154.391l7.545,11.318-2.42,2.42A1,1,0,0,0,39,36a3,3,0,0,1-6,0ZM48,24a1,1,0,0,0-.768,1.641l2.682,3.217c-1.646-.387-3.106-.371-3.746.586a1,1,0,0,0,.125,1.263,21.7,21.7,0,0,1,3.456,4.9c-1.73-.79-3.536-1.241-4.456-.317a1,1,0,0,0,0,1.414c1.506,1.506,1.481,3.707,1.223,5.221l-5.148-5.882,2.339-2.339a1,1,0,0,0,.125-1.262L35.951,20.624l-.636-3.816a3.361,3.361,0,0,0-6.63,0l-.636,3.816L20.168,32.445a1,1,0,0,0,.125,1.262l2.339,2.339-4.874,5.569a8.963,8.963,0,0,1,1.074-5.06,1,1,0,0,0-.125-1.262c-.922-.923-2.728-.472-4.457.318a21.667,21.667,0,0,1,3.457-4.9,1,1,0,0,0,.125-1.263c-.639-.957-2.1-.973-3.746-.586l2.682-3.217A1,1,0,0,0,16,24H12.832L20.66,11.822a36.2,36.2,0,0,1,22.68,0L51.168,24Zm12.014-9.164a32.732,32.732,0,0,0-.292,6.427c.043,1.586.087,3.225-.306,3.629-.026.027-.1.108-.416.108-3.042,0-6.241-2.739-7.043-3.473L45.086,10.839a3.583,3.583,0,0,1,1.526-2.026,3.537,3.537,0,0,1,3.016.116,28.3,28.3,0,0,0,4.636,1.261C58.741,11.141,60.515,11.826,60.014,14.836Z"/><path d="M24,13h-.391c-1.281-.01-2.392-.014-3.088.68A1.8,1.8,0,0,0,20,15a4.411,4.411,0,0,0,4,4h.391l.367,0a3.711,3.711,0,0,0,2.721-.682A1.8,1.8,0,0,0,28,17,4.411,4.411,0,0,0,24,13Zm.4,4H24c-.981,0-1.9-1.24-1.992-1.922A8.247,8.247,0,0,1,23.6,15H24c.991,0,1.921,1.266,2,1.921A8.013,8.013,0,0,1,24.4,17Z"/><path d="M40.391,13H40a4.411,4.411,0,0,0-4,4,1.8,1.8,0,0,0,.521,1.321,3.711,3.711,0,0,0,2.721.682l.367,0H40a4.411,4.411,0,0,0,4-4,1.8,1.8,0,0,0-.521-1.321C42.783,12.988,41.673,12.99,40.391,13ZM40,17h-.4a8.337,8.337,0,0,1-1.593-.08C38.079,16.269,39.009,15,40,15h.4a8.186,8.186,0,0,1,1.593.08C41.921,15.737,40.991,17,40,17Z"/></g></svg>
