<svg height="512" viewBox="0 0 64 64" width="512" xmlns="http://www.w3.org/2000/svg"><g id="Filled_outline" data-name="Filled outline"><path d="m53 31v-8l-12-12h-18l-12 12v8l-2 7 3 7 8 9 5 1h.08a6.991 6.991 0 0 0 13.84 0h1.08l4-1 8-9 3-7z" fill="#e8e7d6"/><path d="m32 48a12.312 12.312 0 0 1 -7 2.212v3.788a7 7 0 0 0 14 0v-3.788a12.312 12.312 0 0 1 -7-2.212z" fill="#f98c96"/><path d="m54.574 36.508-1.574-5.508v-8l-12-12h-7v18c4.36 7.994 15.052 8.065 20.574 7.508z" fill="#5a6470"/><path d="m9.426 36.508c5.522.557 16.214.486 20.574-7.508v-18h-7l-12 12v8z" fill="#5a6470"/><g fill="#394d5c"><path d="m23 11s-.208-5.75-2-8c-.535-.672-6.462 1.807-10 9s0 11 0 11z"/><path d="m38 39c0 2.979-3.069 7-6 7s-6-4.021-6-7 3.069-3 6-3 6 .021 6 3z"/><path d="m41 11s.208-5.75 2-8c.535-.672 6.462 1.807 10 9s0 11 0 11z"/><path d="m17 23c0 1.1 1.343 1 3 1a3.428 3.428 0 0 0 3-3c0-1.105-1.343-1-3-1a3.427 3.427 0 0 0 -3 3z"/><path d="m47 23c0 1.1-1.343 1-3 1a3.428 3.428 0 0 1 -3-3c0-1.105 1.343-1 3-1a3.427 3.427 0 0 1 3 3z"/></g><path d="m39 39c0-4-4.213-4-7-4s-7 0-7 4c0 3.419 3.461 8 7 8s7-4.581 7-8zm-5 3.161c0-.005.1-.464 1.5-1.3l-1.029-1.714c-.684.41-2.766 1.659-2.442 3.364a2.818 2.818 0 0 0 1.775 1.876 2.958 2.958 0 0 1 -3.62 0 2.812 2.812 0 0 0 1.768-1.873c.324-1.7-1.758-2.954-2.441-3.364l-1.03 1.714c1.347.808 1.494 1.264 1.509 1.263a2.889 2.889 0 0 1 -1.43.724 6.8 6.8 0 0 1 -1.56-3.851c0-1.7 1.311-2 5-2s5 .3 5 2a6.807 6.807 0 0 1 -1.567 3.847 3.217 3.217 0 0 1 -1.433-.686z"/><circle cx="21" cy="29" r="2"/><circle cx="43" cy="29" r="2"/><path d="m8.038 37.726a1 1 0 0 0 .043.668l3 7a.992.992 0 0 0 .172.27l8 9a.992.992 0 0 0 .551.316l4.425.885a7.989 7.989 0 0 0 15.508.135l4.5-1.03a1.007 1.007 0 0 0 .505-.306l8-9a.992.992 0 0 0 .172-.27l3-7a1 1 0 0 0 .043-.668l-1.957-6.866v-7.514c.837-1.138 3.149-5.176-.1-11.787-3.133-6.371-8.257-9.428-10.3-9.65a1.428 1.428 0 0 0 -1.375.468c-1.544 1.93-2.025 5.787-2.165 7.623h-16.12c-.144-1.836-.621-5.693-2.158-7.623a1.434 1.434 0 0 0 -1.375-.468c-2.047.222-7.171 3.279-10.3 9.65-3.252 6.611-.94 10.649-.1 11.787v7.514zm29.962 16.274a6 6 0 0 1 -12 0v-2.816a12.92 12.92 0 0 0 5-1.474v4.29h2v-4.287a12.9 12.9 0 0 0 5 1.472zm5.567-50.072c1.246.3 5.662 2.671 8.536 8.513 2.255 4.586 1.434 7.592.737 8.985l-10.819-10.82c.103-1.658.512-5.029 1.546-6.678zm-8.567 8.072h5.586l11.414 11.414v7.586a1.007 1.007 0 0 0 .038.274l1.24 4.34c-5.657.4-14.448-.183-18.278-6.875zm-6 0v16.739c-3.83 6.692-12.626 7.279-18.278 6.875l1.24-4.34a1.007 1.007 0 0 0 .038-.274v-7.586l11.414-11.414zm-17.1.441c2.874-5.842 7.29-8.211 8.536-8.513 1.032 1.647 1.442 5.019 1.546 6.678l-10.82 10.818c-.694-1.395-1.516-4.406.738-8.983zm-1.739 25.137c.988.08 2.073.134 3.223.134 6.056 0 13.807-1.475 17.494-8.233a1 1 0 0 0 .122-.479v-17h2v17a1 1 0 0 0 .122.479c3.687 6.758 11.437 8.233 17.494 8.233 1.15 0 2.235-.054 3.223-.134l.1.355-2.795 6.524-7.686 8.643-3.458.869v-2.869a8.049 8.049 0 0 0 4.781-2.479l-1.562-1.25c-.034.044-3.526 4.254-10.689-.223a1 1 0 0 0 -1.06 0c-7.091 4.431-10.55.392-10.689.223l-1.562 1.25a8.065 8.065 0 0 0 4.781 2.479v2.68l-3.476-.7-7.669-8.628-2.795-6.519z"/><path d="m21 41h2v2h-2z"/><path d="m23 45h2v2h-2z"/><path d="m16 43h2v2h-2z"/><path d="m41 41h2v2h-2z"/><path d="m39 45h2v2h-2z"/><path d="m46 43h2v2h-2z"/><path d="m19.242 25.006h.366.392a4.411 4.411 0 0 0 4-4 1.8 1.8 0 0 0 -.521-1.321c-.7-.693-1.8-.693-3.087-.68h-.392a4.411 4.411 0 0 0 -4 4 1.8 1.8 0 0 0 .521 1.321 3.711 3.711 0 0 0 2.721.68zm.758-4.006h.4a8.028 8.028 0 0 1 1.594.08c-.073.655-1 1.921-2 1.921h-.4a8.324 8.324 0 0 1 -1.594-.08c.078-.652 1.009-1.921 2-1.921z"/><path d="m44 25h.392.366a3.711 3.711 0 0 0 2.721-.682 1.8 1.8 0 0 0 .521-1.318 4.411 4.411 0 0 0 -4-4h-.392c-1.289-.011-2.391-.013-3.087.68a1.8 1.8 0 0 0 -.521 1.32 4.411 4.411 0 0 0 4 4zm-.4-4h.4c.991 0 1.922 1.266 1.995 1.921a8.01 8.01 0 0 1 -1.595.079h-.4c-.981 0-1.9-1.24-1.992-1.922a8.344 8.344 0 0 1 1.592-.078z"/></g></svg>