<svg height="512" viewBox="0 0 64 64" width="512" xmlns="http://www.w3.org/2000/svg"><g id="Filled_outline" data-name="Filled outline"><path d="m48 12.012s8.859 3.707 12 9.988-3.43 10.578-5 20-7 5.281-7-1z" fill="#e8e7d6"/><path d="m16 12.012s-8.859 3.707-12 9.988 3.43 10.578 5 20 7 5.281 7-1z" fill="#e8e7d6"/><path d="m32 9c-7 0-16 3-16 3v22s4 9 6 13c.988 1.976 2.239 4 5 4s5-1.791 5-4c0 2.209 2.239 4 5 4s4.012-2.024 5-4c2-4 6-13 6-13v-22s-9-3-16-3z" fill="#f4f4e6"/><path d="m28 30c3-6-2-7 1-11 2.434-3.245 2.208-7.463.122-9.852a69.032 69.032 0 0 0 -13.122 2.852v19s9 5 12-1z" fill="#5a6470"/><path d="m37 51c-2.761 0-5-1.791-5-4 0 2.209-2.239 4-5 4-.072 0-.132-.016-.2-.019a5.991 5.991 0 0 0 10.4 0c-.068.003-.128.019-.2.019z" fill="#e8e7d6"/><g fill="#394d5c"><path d="m58.8 20.069a20.561 20.561 0 0 0 -3.836-3.869 2.994 2.994 0 1 0 3.836 3.869z"/><path d="m52 29c-.68-2.041-2.747-.843-4 .132v11.54c2.62 1.021 4.888-3.9 4-5.672-1-2 1-3 0-6z"/><path d="m4 22a8.267 8.267 0 0 0 -.517 1.292c2.053 1.449 5.517 1.82 5.517-.292 0-3 2-2 3-4 .553-1.106.188-3.126-.248-4.713-2.729 1.713-6.064 4.336-7.752 7.713z"/><path d="m16 37.532v-3.074c-1.318.267-3.629 1.285-5-1.458-1.265-2.53-3.33-.659-4.677 1.058a28.892 28.892 0 0 1 2.677 7.942c0 .026.009.048.014.074a9.68 9.68 0 0 0 6.986-4.542z"/></g><path d="m36 41a4.406 4.406 0 0 1 -4 4 4.406 4.406 0 0 1 -4-4c0-1.657 1.791-2 4-2s4 .343 4 2z" fill="#143441"/><path d="m48.4 11.093-.08-.041c-.378-.125-9.239-3.052-16.32-3.052s-15.942 2.927-16.316 3.052l-.08.041c-.435.183-9.241 3.945-12.5 10.46-2.063 4.128-.4 7.464 1.524 11.325a31.9 31.9 0 0 1 3.385 9.286c.908 5.452 3.012 6.377 4.334 6.377.081 0 .16 0 .235-.01 2.437-.201 4.418-3.58 4.418-7.531v-2.336c1.315 2.9 3.012 6.6 4.105 8.783.738 1.475 2.068 4.124 5.139 4.5a6.956 6.956 0 0 0 11.512 0c3.071-.379 4.4-3.028 5.139-4.5 1.093-2.186 2.79-5.882 4.1-8.783v2.336c0 3.951 1.981 7.33 4.417 7.531.075.006.153.01.235.01 1.322 0 3.426-.926 4.334-6.377a31.9 31.9 0 0 1 3.385-9.286c1.925-3.861 3.587-7.2 1.524-11.325-3.252-6.514-12.058-10.277-12.49-10.46zm-43.505 11.354a18.776 18.776 0 0 1 6.205-6.531 4.581 4.581 0 0 1 0 2.637 2.2 2.2 0 0 1 -1.113 1 3.322 3.322 0 0 0 -1.987 3.447c0 .229-.074.284-.186.343a4.2 4.2 0 0 1 -3.1-.485c.055-.136.111-.272.181-.411zm10.105 18.553c0 3.25-1.529 5.451-2.582 5.538-.723.089-1.679-1.129-2.266-3.867a25.85 25.85 0 0 0 4.848-2.924zm0-3.8c-.937 1.142-3.675 2.611-5.263 3.376a30.1 30.1 0 0 0 -2.237-6.376c.951-1.1 1.644-1.487 1.977-1.435.265.026.508.437.629.679a3.854 3.854 0 0 0 3.64 2.407 6.365 6.365 0 0 0 1.254-.136zm0-3.532c-1.417.338-2.36.378-3.105-1.113a2.813 2.813 0 0 0 -2.218-1.776 4 4 0 0 0 -3.114 1.5l-.144-.291c-1.364-2.736-2.444-4.9-2.226-7.176a7.329 7.329 0 0 0 2.862.67 3.641 3.641 0 0 0 1.679-.361 2.28 2.28 0 0 0 1.266-2.121c0-1.175.258-1.315.949-1.691a4.135 4.135 0 0 0 1.951-1.862c.512-1.025.512-2.567.007-4.69.8-.477 1.521-.87 2.1-1.163zm2-20.934a68.414 68.414 0 0 1 11.674-2.534 7.069 7.069 0 0 1 -.474 8.2 5.125 5.125 0 0 0 -.7 5.507 6.156 6.156 0 0 1 -.393 5.646 3.985 3.985 0 0 1 -2.473 2.158c-2.7.836-6.309-.689-7.632-1.325zm15 40.266a4.989 4.989 0 0 1 -3.254-1.225 6.051 6.051 0 0 0 3.254-2.014 6.051 6.051 0 0 0 3.254 2.014 4.989 4.989 0 0 1 -3.254 1.225zm15-19.213c-.593 1.331-4.089 9.155-5.9 12.766-1.086 2.183-2.108 3.447-4.1 3.447-2.206 0-4-1.346-4-3a1 1 0 0 0 -2 0c0 1.654-1.794 3-4 3-1.992 0-3.014-1.264-4.105-3.447-1.806-3.611-5.3-11.435-5.895-12.766v-1.2a15.829 15.829 0 0 0 5.89 1.368 7.892 7.892 0 0 0 2.33-.328 5.976 5.976 0 0 0 3.68-3.18 8.088 8.088 0 0 0 .5-7.176c-.453-1.348-.726-2.163.405-3.671a9.334 9.334 0 0 0 1.091-9.575c.369-.016.74-.025 1.104-.025 5.661 0 12.791 2.052 15 2.732zm7.852-16.4a19.654 19.654 0 0 1 2.76 2.765 1.965 1.965 0 0 1 -1.612.848 1.983 1.983 0 0 1 -1.148-3.612zm-5.852 12.25c.987-.694 1.573-.8 1.774-.739.134.04.231.28.277.418a4.237 4.237 0 0 1 -.044 2.892 4.021 4.021 0 0 0 .1 3.239c.3.6-.114 2.491-1.2 3.677a2.025 2.025 0 0 1 -.909.627zm8.581 2.348a33.515 33.515 0 0 0 -3.567 9.851c-.557 3.342-1.631 4.8-2.432 4.7-.967-.08-2.319-1.952-2.537-4.769a3.776 3.776 0 0 0 2.342-1.3c1.364-1.5 2.32-4.3 1.508-5.92-.293-.585-.2-.972.035-1.792a6.21 6.21 0 0 0 .019-4.077 2.434 2.434 0 0 0 -1.595-1.7 3.255 3.255 0 0 0 -2.354.339v-13.724a34.181 34.181 0 0 1 4.228 2.55 3.987 3.987 0 1 0 5.555 5.721c.111.193.224.385.322.583 1.618 3.236.3 5.879-1.524 9.538z"/><path d="m37 41c0-3-3.763-3-5-3s-5 0-5 3a5.419 5.419 0 0 0 5 5 5.419 5.419 0 0 0 5-5zm-5 3a3.409 3.409 0 0 1 -3-3c0-.3 0-1 3-1s3 .7 3 1a3.409 3.409 0 0 1 -3 3z"/><path d="m27.512 37.859a9.18 9.18 0 0 1 8.973 0l1.03-1.714c-5.453-3.273-10.8-.135-11.03 0z"/><circle cx="24" cy="27" r="2"/><circle cx="40" cy="27" r="2"/><path d="m43.445 24.832 1.11-1.664a8.321 8.321 0 0 0 -6.871-1.116l.627 1.9a6.318 6.318 0 0 1 5.134.88z"/><path d="m25.689 23.95.627-1.9a8.33 8.33 0 0 0 -6.871 1.116l1.11 1.664a6.318 6.318 0 0 1 5.134-.88z"/></g></svg>