<svg height="512" viewBox="0 0 64 64" width="512" xmlns="http://www.w3.org/2000/svg"><g id="Filled_outline" data-name="Filled outline"><path d="m33 45-1-4-1 4a3.777 3.777 0 0 1 -4 3v1a5 5 0 0 0 10 0v-1a3.777 3.777 0 0 1 -4-3z" fill="#dd3e46"/><path d="m36 10h-8l-9 3v22l3 10c.605 1.967 2.125 3 5 3a3.777 3.777 0 0 0 4-3l1-4 1 4a3.777 3.777 0 0 0 4 3c2.875 0 4.4-1.033 5-3l3-10v-22z" fill="#ceac9a"/><path d="m19 13s-5-3-9-3l1 3-7 7c-4 4 5 13.666 5 19 0 7.168 10 11.669 10-4z" fill="#995f5b"/><path d="m45 13s5-3 9-3l-1 3 7 7c4 4-5 13.666-5 19 0 7.168-10 11.669-10-4z" fill="#995f5b"/><path d="m36 36c0 1.657-2.343 5-4 5s-4-3.343-4-5 2.343-2 4-2 4 .343 4 2z" fill="#143441"/><path d="m9.005 18.9a1 1 0 0 0 .288.806l1.019 1.019-2.759 1.38a1 1 0 0 0 -.5 1.211l1 3 1.9-.632-.726-2.178 3.22-1.606a1 1 0 0 0 .26-1.6l-1.137-1.145 1.985-1.323-1.11-1.664-3 2a1 1 0 0 0 -.44.732z"/><path d="m54.144 12.73.8-2.414a1 1 0 0 0 -.944-1.316c-3.6 0-7.807 2.183-9.108 2.91l-8.575-2.859a1 1 0 0 0 -.317-.051h-8a1 1 0 0 0 -.317.051l-8.575 2.859c-1.301-.727-5.508-2.91-9.108-2.91a1 1 0 0 0 -.949 1.316l.8 2.414-6.558 6.563c-2.908 2.907-.471 7.674 1.885 12.284 1.387 2.714 2.822 5.523 2.822 7.423 0 4.03 2.842 7.564 6.082 7.564a4.917 4.917 0 0 0 4.262-2.894 12.258 12.258 0 0 0 1.185-3.427l1.515 5.051c.674 2.19 2.343 3.412 4.956 3.655v.051a6 6 0 0 0 12 0v-.051c2.613-.243 4.282-1.466 4.958-3.662l1.513-5.044a12.258 12.258 0 0 0 1.185 3.427 4.917 4.917 0 0 0 4.262 2.894c3.24 0 6.082-3.534 6.082-7.564 0-1.9 1.435-4.709 2.822-7.423 2.356-4.61 4.793-9.376 1.885-12.284zm-36.144 22.27c0 3.368-.487 6.032-1.408 7.706a3.075 3.075 0 0 1 -2.51 1.858c-1.888 0-4.082-2.43-4.082-5.564 0-2.384-1.477-5.274-3.041-8.333-2.031-3.973-4.131-8.081-2.252-9.96l7-7a1 1 0 0 0 .242-1.023l-.52-1.56a22.931 22.931 0 0 1 6.571 2.459zm18 14a4 4 0 0 1 -8 0v-.078a4.505 4.505 0 0 0 3-1.722v3.8h2v-3.79a4.509 4.509 0 0 0 3 1.712zm-7-13c0-.687 1.555-1 3-1s3 .313 3 1c0 1.271-2.047 4-3 4s-3-2.729-3-4zm15-1.147-2.956 9.853c-.344 1.134-1.103 2.294-4.044 2.294a2.785 2.785 0 0 1 -3.03-2.243l-.77-3.072a7.915 7.915 0 0 0 3.8-5.685c0-.9-.487-3-5-3s-5 2.1-5 3a7.915 7.915 0 0 0 3.8 5.685l-.759 3.04a2.8 2.8 0 0 1 -3.041 2.275c-2.941 0-3.695-1.16-4.042-2.287l-2.958-9.86v-21.132l8.162-2.721h7.676l8.162 2.721zm13.041-4.186c-1.564 3.059-3.041 5.949-3.041 8.333 0 3.134-2.194 5.564-4.082 5.564a3.075 3.075 0 0 1 -2.51-1.858c-.921-1.674-1.408-4.338-1.408-7.706v-21.417a22.931 22.931 0 0 1 6.571-2.459l-.52 1.56a1 1 0 0 0 .242 1.023l7 7c1.879 1.879-.221 5.987-2.252 9.96z"/><path d="m56.447 22.105-2.759-1.379 1.019-1.019a1 1 0 0 0 -.152-1.539l-3-2-1.11 1.664 1.985 1.323-1.137 1.138a1 1 0 0 0 .26 1.6l3.224 1.611-.726 2.178 1.9.632 1-3a1 1 0 0 0 -.504-1.209z"/><path d="m26.485 30.476 1.027 1.716a9.184 9.184 0 0 1 8.973 0l1.03-1.715c-5.453-3.272-10.805-.137-11.03-.001z"/><circle cx="25" cy="26" r="2"/><circle cx="39" cy="26" r="2"/></g></svg>