<?xml version="1.0" encoding="UTF-8"?>
<svg xmlns="http://www.w3.org/2000/svg" viewBox="0 0 64 64" width="512" height="512"><g id="Filled_outline" data-name="Filled outline"><path d="M36,20H28L18,27V42l4,8v7.031C22,59.223,22.808,61,25,61c2.312,0,3.566-2.264,4-4a24.886,24.886,0,0,1,3-7,24.886,24.886,0,0,1,3,7c.434,1.736,1.687,4,4,4,2.192,0,3-1.777,3-3.969V50l4-8V27Z" style="fill:#5a6470"/><path d="M28,20a47.357,47.357,0,0,0-5-6c-2.858-2.858-1.142-11-4-11s-2.571,4.854-4,12-1.288,9.142,3,12Z" style="fill:#394d5c"/><path d="M36,20a47.357,47.357,0,0,1,5-6c2.858-2.858,1.142-11,4-11s2.571,4.854,4,12,1.288,9.142-3,12Z" style="fill:#394d5c"/><path d="M35,57a24.886,24.886,0,0,0-3-7,24.886,24.886,0,0,0-3,7,7.634,7.634,0,0,1-.383,1.114,3.977,3.977,0,0,0,6.766,0A7.634,7.634,0,0,1,35,57Z" style="fill:#5a6470"/><path d="M32,39c-3.045,0-5.74,2.228-7,5l-3,6v7.031C22,59.223,22.808,61,25,61c2.312,0,3.566-2.264,4-4a24.886,24.886,0,0,1,3-7,24.886,24.886,0,0,1,3,7c.434,1.736,1.687,4,4,4,2.192,0,3-1.777,3-3.969V50l-3-6C37.74,41.228,35.045,39,32,39Z" style="fill:#394d5c"/><path d="M36,46c0,1.449-1.827,4-4,4s-4-2.551-4-4,1.827-2,4-2S36,44.551,36,46Z" style="fill:#143441"/><path d="M25,62a4.571,4.571,0,0,0,3.822-2.161,4.93,4.93,0,0,0,6.356,0A4.571,4.571,0,0,0,39,62c2.505,0,4-1.857,4-4.969v-6.8l3.9-7.789A1,1,0,0,0,47,42V27.518c4.421-3.125,4.339-5.919,2.98-12.714-.369-1.846-.623-3.547-.847-5.047C48.459,5.254,47.972,2,45,2c-2.362,0-2.7,2.815-3.021,5.538-.256,2.164-.547,4.616-1.686,5.755A48.158,48.158,0,0,0,35.481,19H28.519a48.158,48.158,0,0,0-4.812-5.707c-1.139-1.139-1.43-3.591-1.686-5.755C21.7,4.815,21.362,2,19,2c-2.972,0-3.459,3.254-4.133,7.757-.224,1.5-.478,3.2-.847,5.047-1.359,6.8-1.441,9.589,2.98,12.714V42a1,1,0,0,0,.105.447L21,50.236v6.8C21,60.143,22.5,62,25,62Zm7-3a2.951,2.951,0,0,1-2.24-1.055c.08-.234.151-.469.21-.7A24.114,24.114,0,0,1,32,52a24.132,24.132,0,0,1,2.029,5.242c.059.234.13.469.21.7A2.951,2.951,0,0,1,32,59Zm0-10c-1.581,0-3-2.038-3-3,0-.589,1.233-1,3-1s3,.411,3,1C35,46.962,33.581,49,32,49Zm9,8.031C41,60,39.495,60,39,60c-2.113,0-2.9-2.7-3.03-3.243a26.084,26.084,0,0,0-2.41-6.083A5.826,5.826,0,0,0,37,46c0-.9-.487-3-5-3s-5,2.1-5,3a5.826,5.826,0,0,0,3.44,4.674,26.076,26.076,0,0,0-2.41,6.084C27.9,57.3,27.113,60,25,60c-.5,0-2,0-2-2.969v-6.8l2.91-5.822A7.1,7.1,0,0,1,32,40a7.118,7.118,0,0,1,6.1,4.447L41,50.236Zm.707-42.324c1.629-1.629,1.964-4.447,2.259-6.933C44.145,6.271,44.414,4,45,4c1.193,0,1.56,2.076,2.154,6.054.229,1.522.487,3.248.866,5.142,1.358,6.793,1.149,8.35-2.014,10.588l-5.583-3.908,5.336-6.225-1.518-1.3-5.463,6.374L37.4,19.761A46.542,46.542,0,0,1,41.707,14.707ZM15.98,15.2c.379-1.894.637-3.62.866-5.142C17.44,6.076,17.807,4,19,4c.586,0,.855,2.271,1.034,3.774.3,2.486.63,5.3,2.259,6.933A46.542,46.542,0,0,1,26.6,19.761l-1.376.962-5.463-6.374-1.518,1.3,5.336,6.225-5.583,3.908C14.831,23.546,14.622,21.989,15.98,15.2ZM19,41.764V27.521L28.315,21h7.37L45,27.521V41.764l-3,6-2.09-4.178a21.4,21.4,0,0,0-2.053-3.1l-2-3.337A6.013,6.013,0,0,1,35,34.061V28H33v6.061a8,8,0,0,0,1.14,4.116l.117.2a7.033,7.033,0,0,0-4.514,0l.117-.2A8,8,0,0,0,31,34.061V28H29v6.061a6.013,6.013,0,0,1-.854,3.087l-2,3.337a21,21,0,0,0-2.038,3.068L22,47.764Z"/><circle cx="25" cy="33" r="2"/><circle cx="39" cy="33" r="2"/></g></svg>
