<?xml version="1.0" encoding="UTF-8"?>
<svg xmlns="http://www.w3.org/2000/svg" viewBox="0 0 64 64" width="512" height="512"><g id="Filled_outline" data-name="Filled outline"><path d="M20,17s-1.509-3-7-3-2.509,6.881-8,11,5,5.509,5,11a4,4,0,1,0,8,0Z" style="fill:#995f5b"/><path d="M44,17s1.509-3,7-3,2.509,6.881,8,11-5,5.509-5,11a4,4,0,1,1-8,0Z" style="fill:#995f5b"/><path d="M37,50H27c-2.245,0-4.166-.915-5-3L18,36l2-19s3.763-3,12-3,12,3,12,3l2,19L42,47C41.166,49.085,39.245,50,37,50Z" style="fill:#66342e"/><path d="M45.579,32H36v8c0-1.657-1.791-3-4-3s-4,1.343-4,3V32H18.421L18,36l4,11c.834,2.085,2.755,3,5,3H37c2.245,0,4.166-.915,5-3l4-11Z" style="fill:#d3843d"/><ellipse cx="32" cy="40" rx="4" ry="3" style="fill:#301a12"/><path d="M28,23c0,1.1-1.343,1-3,1a3.428,3.428,0,0,1-3-3c0-1.105,1.343-1,3-1A3.427,3.427,0,0,1,28,23Z" style="fill:#d3843d"/><path d="M36,23c0,1.105,1.343,1,3,1a3.427,3.427,0,0,0,3-3c0-1.1-1.343-1-3-1A3.428,3.428,0,0,0,36,23Z" style="fill:#d3843d"/><path d="M5.46,31.273C7.2,32.63,9,34.033,9,36a4.9,4.9,0,0,0,5,5.118A4.989,4.989,0,0,0,18.065,39.1l3.006,8.267C21.994,49.677,24.154,51,27,51H37a5.974,5.974,0,0,0,5.939-3.658l3-8.237A4.989,4.989,0,0,0,50,41.118,4.9,4.9,0,0,0,55,36c0-1.967,1.8-3.37,3.54-4.727,1.576-1.23,3.065-2.392,3.05-4.025-.01-1.054-.66-2.051-1.99-3.048-2.313-1.735-2.957-4.063-3.527-6.117C55.382,15.584,54.666,13,51,13c-4.139,0-6.277,1.6-7.237,2.653C42.173,14.728,38.352,13,32,13s-10.173,1.728-11.763,2.653C19.277,14.6,17.139,13,13,13c-3.666,0-4.382,2.584-5.073,5.083C7.357,20.137,6.713,22.465,4.4,24.2c-1.33,1-1.98,1.994-1.99,3.048C2.4,28.881,3.884,30.043,5.46,31.273ZM51,15c2.062,0,2.434,1.044,3.146,3.617.622,2.245,1.395,5.039,4.254,7.183.764.573,1.187,1.094,1.191,1.467.006.645-1.209,1.593-2.281,2.429C55.39,31.193,53,33.057,53,36a3,3,0,1,1-6,0,.894.894,0,0,0-.006-.1L45.031,17.243C45.481,16.638,47.062,15,51,15ZM20.946,17.564C21.993,16.905,25.578,15,32,15s10.012,1.908,11.054,2.564L44.468,31H36a1,1,0,0,0-1,1v4.82a5.9,5.9,0,0,0-6,0V32a1,1,0,0,0-1-1H19.532ZM35,40c0,1.084-1.374,2-3,2s-3-.916-3-2,1.374-2,3-2S35,38.916,35,40ZM19.321,33H27v7c0,1.932,1.721,3.547,4,3.919v.739c-1.535,1.893-4.429.508-4.556.446L25.553,46.9a7.531,7.531,0,0,0,3.212.756A4.789,4.789,0,0,0,32,46.508a4.789,4.789,0,0,0,3.235,1.143,7.531,7.531,0,0,0,3.212-.756l-.894-1.79c-.031.015-3,1.462-4.553-.448v-.738c2.279-.372,4-1.987,4-3.919V33h7.679l.3,2.876-3.91,10.752A4.034,4.034,0,0,1,37,49H27a4.03,4.03,0,0,1-4.061-2.342l-3.92-10.782ZM5.6,25.8c2.859-2.144,3.632-4.938,4.254-7.183C10.566,16.044,10.937,15,13,15c3.938,0,5.519,1.638,5.969,2.243L17.006,35.9A.894.894,0,0,0,17,36a2.9,2.9,0,0,1-3,3.118A2.9,2.9,0,0,1,11,36c0-2.943-2.39-4.807-4.31-6.3C5.618,28.86,4.4,27.912,4.409,27.267,4.413,26.894,4.836,26.373,5.6,25.8Z"/><path d="M25.393,25h.368a3.707,3.707,0,0,0,2.718-.681A1.8,1.8,0,0,0,29,23a4.411,4.411,0,0,0-4-4h-.392c-1.289,0-2.391-.012-3.087.68A1.8,1.8,0,0,0,21,21a4.41,4.41,0,0,0,4,4Zm-2.385-3.923A8.552,8.552,0,0,1,24.6,21H25c.991,0,1.922,1.267,2,1.921A8.488,8.488,0,0,1,25.4,23L25,23C24.019,23,23.1,21.762,23.008,21.081Z"/><path d="M38.242,25H39a4.411,4.411,0,0,0,4-4,1.8,1.8,0,0,0-.521-1.322c-.7-.692-1.809-.686-3.086-.68L39,19a4.41,4.41,0,0,0-4,4,1.8,1.8,0,0,0,.521,1.321A3.715,3.715,0,0,0,38.242,25ZM39,21l.4,0A8.389,8.389,0,0,1,41,21.077C40.922,21.731,39.991,23,39,23h-.4a8.376,8.376,0,0,1-1.594-.081C37.078,22.264,38.009,21,39,21Z"/><circle cx="39" cy="27" r="2"/><circle cx="26" cy="27" r="2"/></g></svg>
