<svg height="512" viewBox="0 0 64 64" width="512" xmlns="http://www.w3.org/2000/svg"><g id="Filled_outline" data-name="Filled outline"><path d="m33 45-1-4-1 4a3.777 3.777 0 0 1 -4 3v1a5 5 0 0 0 10 0v-1a3.777 3.777 0 0 1 -4-3z" fill="#f98c96"/><path d="m32 9a29.145 29.145 0 0 0 -15 4v22l5 10c.605 1.967 2.125 3 5 3a3.777 3.777 0 0 0 4-3l1-4 1 4a3.777 3.777 0 0 0 4 3c2.875 0 4.4-1.033 5-3l5-10v-22a29.145 29.145 0 0 0 -15-4z" fill="#ceac9a"/><path d="m36 36c0 1.657-2.343 5-4 5s-4-3.343-4-5 2.343-2 4-2 4 .343 4 2z" fill="#143441"/><path d="m17 13-10 8c-7 6-2.985 7.786-1 10 1.083 1.208 4 4.37 4 8 0 6.39 7 9.435 7-3.346z" fill="#995f5b"/><path d="m47 13 10 8c7 6 2.985 7.786 1 10-1.083 1.208-4 4.37-4 8 0 6.39-7 9.435-7-3.346z" fill="#995f5b"/><path d="m27.512 32.192a9.187 9.187 0 0 1 8.973 0l1.03-1.715c-5.453-3.272-10.8-.136-11.03 0z"/><circle cx="25" cy="26" r="2"/><circle cx="39" cy="26" r="2"/><path d="m4.405 30.818c.3.284.593.562.85.849l.079.088c1.097 1.222 3.666 4.082 3.666 7.245 0 3.593 2 6.517 4.458 6.517.791 0 2.275-.337 3.337-2.59a13.089 13.089 0 0 0 1.033-4.034l3.242 6.483c.69 2.139 2.35 3.334 4.93 3.574v.05a6 6 0 0 0 12 0v-.05c2.58-.24 4.24-1.435 4.93-3.574l3.242-6.483a13.089 13.089 0 0 0 1.033 4.034c1.062 2.253 2.546 2.59 3.337 2.59 2.458 0 4.458-2.924 4.458-6.517 0-3.163 2.569-6.023 3.666-7.245l.079-.088c.257-.287.552-.565.85-.849 1.074-1.021 2.411-2.293 2.362-4.2-.049-1.873-1.417-3.9-4.332-6.4l-10-8s-.046-.035-.07-.051a29.933 29.933 0 0 0 -15.555-4.167 29.933 29.933 0 0 0 -15.555 4.168c-.024.016-.07.051-.07.051l-10.026 8.022c-2.889 2.476-4.257 4.5-4.306 6.375-.049 1.909 1.288 3.184 2.362 4.202zm43.595 4.182v-19.92l3.281 2.62c.467.617 3.574 4.921 2.739 9.1l1.96.392a11.533 11.533 0 0 0 -.692-6.286l1.061.849c2.362 2.025 3.576 3.676 3.608 4.908.026 1.022-.832 1.838-1.74 2.7-.338.321-.67.638-.962.964l-.077.086c-1.25 1.398-4.178 4.658-4.178 8.587 0 2.757-1.456 4.517-2.458 4.517-.738 0-1.274-.9-1.528-1.443a15.35 15.35 0 0 1 -1.014-6.42zm-12 14a4 4 0 0 1 -8 0v-.078a4.505 4.505 0 0 0 3-1.722v3.8h2v-3.79a4.509 4.509 0 0 0 3 1.712zm-7-13c0-.687 1.555-1 3-1s3 .313 3 1c0 1.271-2.047 4-3 4s-3-2.729-3-4zm-11-22.437a29.286 29.286 0 0 1 28 0v21.2l-4.9 9.789a1.134 1.134 0 0 0 -.061.153c-.339 1.135-1.098 2.295-4.039 2.295a2.785 2.785 0 0 1 -3.03-2.243l-.77-3.072a7.915 7.915 0 0 0 3.8-5.685c0-.9-.487-3-5-3s-5 2.1-5 3a7.915 7.915 0 0 0 3.8 5.685l-.759 3.04a2.8 2.8 0 0 1 -3.041 2.275c-2.941 0-3.695-1.16-4.044-2.294a1.134 1.134 0 0 0 -.061-.153l-4.895-9.789zm-10.375 8.218 1.087-.87a11.53 11.53 0 0 0 -.692 6.289l1.96-.4c-.832-4.161 2.273-8.48 2.74-9.1l3.28-2.62v20.574a15.35 15.35 0 0 1 -1.014 6.42c-.254.539-.79 1.443-1.528 1.443-1 0-2.458-1.76-2.458-4.517 0-3.929-2.928-7.189-4.178-8.581l-.077-.086c-.292-.326-.624-.643-.962-.964-.908-.864-1.766-1.68-1.74-2.7.032-1.234 1.246-2.885 3.582-4.888z"/></g></svg>