<?xml version="1.0" encoding="UTF-8"?>
<svg xmlns="http://www.w3.org/2000/svg" viewBox="0 0 64 64" width="512" height="512"><g id="Filled_outline" data-name="Filled outline"><path d="M56,43s-3-6-6-9V22L43,11a61,61,0,0,0-22,0L14,22V34c-3,3-6,9-6,9l6-2s-4,7-4,10l5-2c1.531,9.624,4,9,6,12l5-10,6,9,6-9,5,10c3-4,4.469-2.376,6-12l5,2c0-3-4-10-4-10Z" style="fill:#5a6470"/><path d="M46,42c-1-3-5-5-5-5l1-3L32,36,22,34l1,3s-4,2-5,5l4-1s-4,11-1,20l5-10,6,9,6-9,5,10c3-9-1-20-1-20Z" style="fill:#e8e7d6"/><path d="M21,11s-2-8-5-8-3,4-6,6-6,2-3,7S7,26,7,27s6-5,6-5h1Z" style="fill:#394d5c"/><path d="M28,23a6.233,6.233,0,0,0-4-2v2l-4-1a10.3,10.3,0,0,0-2,5H30A11.087,11.087,0,0,0,28,23Z" style="fill:#f4f4e6"/><path d="M43,11s2-8,5-8,3,4,6,6,6,2,3,7,0,10,0,11-6-5-6-5H50Z" style="fill:#394d5c"/><path d="M36,23a6.233,6.233,0,0,1,4-2v2l4-1a10.3,10.3,0,0,1,2,5H34A11.087,11.087,0,0,1,36,23Z" style="fill:#f4f4e6"/><path d="M36,40c0,1.449-1.827,4-4,4s-4-2.551-4-4,1.827-2,4-2S36,38.551,36,40Z" style="fill:#394d5c"/><path d="M18,28H30a1,1,0,0,0,.969-1.247,12.034,12.034,0,0,0-2.223-4.419A7.189,7.189,0,0,0,24,20a1,1,0,0,0-1,1v.719l-2.758-.689a1.006,1.006,0,0,0-1.02.342A11.27,11.27,0,0,0,17,26.912,1,1,0,0,0,18,28Zm2.425-4.863,3.333.833A1,1,0,0,0,25,23v-.807a6.027,6.027,0,0,1,2.254,1.473A8.2,8.2,0,0,1,28.607,26H19.178A9.684,9.684,0,0,1,20.425,23.137Z"/><circle cx="26" cy="30" r="2"/><path d="M4.867,11.88c-.328,1.189.066,2.618,1.276,4.635,2.122,3.536.892,7.1.232,9.017A4.917,4.917,0,0,0,6,27a1.088,1.088,0,0,0,.671,1.028,1.038,1.038,0,0,0,.423.105c.624,0,1.849-.72,5.906-4.725V33.6a45.213,45.213,0,0,0-5.895,8.958,1,1,0,0,0,1.211,1.4l3.609-1.2C10.7,45.148,9,48.854,9,51a1,1,0,0,0,1.371.929l3.852-1.541c1.168,6.344,2.813,7.917,4.407,9.439a9.961,9.961,0,0,1,1.538,1.728.983.983,0,0,0,.894.443,1,1,0,0,0,.833-.551l4.229-8.459,5.044,7.567a1.039,1.039,0,0,0,1.664,0l5.044-7.567,4.229,8.459a1,1,0,0,0,.8.549c.03,0,.061,0,.09,0a1,1,0,0,0,.8-.4,16.742,16.742,0,0,1,2.024-2.226c1.847-1.769,2.91-3.032,3.957-8.984l3.848,1.539A1,1,0,0,0,55,51c0-2.146-1.7-5.852-2.925-8.254l3.609,1.2a1,1,0,0,0,1.211-1.4A45.213,45.213,0,0,0,51,33.6V23.408c4.057,4,5.282,4.725,5.906,4.725a1.042,1.042,0,0,0,.423-.105A1.088,1.088,0,0,0,58,27a4.917,4.917,0,0,0-.375-1.468c-.66-1.916-1.89-5.481.232-9.017,1.21-2.017,1.6-3.446,1.276-4.635-.384-1.392-1.627-2.058-2.944-2.764-.535-.287-1.087-.583-1.634-.948a8.3,8.3,0,0,1-2.413-2.952C51.259,3.708,50.258,2,48,2c-3.106,0-5.022,5.426-5.724,7.854A64.778,64.778,0,0,0,32,9a64.778,64.778,0,0,0-10.276.854C21.022,7.426,19.106,2,16,2c-2.258,0-3.259,1.708-4.142,3.216A8.3,8.3,0,0,1,9.445,8.168c-.547.365-1.1.661-1.634.948C6.494,9.822,5.251,10.488,4.867,11.88ZM42.7,58.161l-3.8-7.608A1,1,0,0,0,38.062,50c-.021,0-.041,0-.062,0a1,1,0,0,0-.832.445L32,58.2l-5.168-7.752A.972.972,0,0,0,25.937,50a1,1,0,0,0-.832.551l-3.8,7.608c-1.5-7.993,1.6-16.723,1.639-16.82a1,1,0,0,0-1.182-1.311l-1.662.415a12.972,12.972,0,0,1,3.352-2.551,1,1,0,0,0,.5-1.21l-.455-1.366L31.8,36.98a.959.959,0,0,0,.392,0l8.311-1.662-.455,1.366a1,1,0,0,0,.5,1.211,12.493,12.493,0,0,1,3.341,2.547l-1.652-.412a1,1,0,0,0-1.182,1.311C41.1,41.438,44.2,50.168,42.7,58.161ZM48,4c1.062,0,1.559.764,2.415,2.227a10.036,10.036,0,0,0,3.03,3.605c.627.418,1.25.752,1.8,1.046,1.119.6,1.813,1,1.961,1.534.163.592-.194,1.626-1.062,3.073a11.239,11.239,0,0,0-.9,9.164c-1.014-.906-2.262-2.092-3.382-3.207A32.308,32.308,0,0,1,50,11H48a33.089,33.089,0,0,0,.881,7.379l-4.8-7.548C44.893,7.84,46.619,4,48,4ZM32,11a63.432,63.432,0,0,1,10.39.9L49,22.292V34a1,1,0,0,0,.293.707,33.8,33.8,0,0,1,4.623,6.544l-3.6-1.2A1,1,0,0,0,49.132,41.5a44.4,44.4,0,0,1,3.592,7.917l-3.353-1.342a1,1,0,0,0-1.358.772c-.974,6.118-1.849,7.394-3.189,8.715A37.9,37.9,0,0,0,43.493,42.4l2.265.566a1,1,0,0,0,1.19-1.286c-.842-2.526-3.433-4.36-4.738-5.15l.738-2.218a1,1,0,0,0-1.144-1.3L32,34.98l-9.8-1.96a1,1,0,0,0-1.144,1.3l.738,2.218c-1.3.79-3.9,2.624-4.738,5.15a1,1,0,0,0,1.19,1.286l2.265-.566a37.9,37.9,0,0,0-1.334,15.135c-1.175-1.292-2.322-3.27-3.186-8.7a1,1,0,0,0-1.358-.772l-3.353,1.342A44.4,44.4,0,0,1,14.868,41.5a1,1,0,0,0-1.184-1.445l-3.6,1.2a33.81,33.81,0,0,1,4.624-6.544A1,1,0,0,0,15,34V22.292L21.61,11.9A63.432,63.432,0,0,1,32,11ZM10.555,9.832a10.036,10.036,0,0,0,3.03-3.605C14.441,4.764,14.938,4,16,4c1.381,0,3.107,3.84,3.922,6.831l-4.8,7.548A33.089,33.089,0,0,0,16,11H14a32.453,32.453,0,0,1-1.858,10.442c-1.12,1.115-2.368,2.3-3.382,3.207a11.239,11.239,0,0,0-.9-9.164C6.989,14.038,6.632,13,6.8,12.412c.148-.538.842-.933,1.961-1.534C9.305,10.584,9.928,10.25,10.555,9.832Z"/><path d="M34,28H46a1,1,0,0,0,1-1.088,11.27,11.27,0,0,0-2.218-5.54,1,1,0,0,0-1.02-.342L41,21.719V21a1,1,0,0,0-1-1,7.189,7.189,0,0,0-4.746,2.334,12.034,12.034,0,0,0-2.223,4.419A1,1,0,0,0,34,28Zm2.746-4.334A6.027,6.027,0,0,1,39,22.193V23a1,1,0,0,0,1.242.97l3.333-.833A9.708,9.708,0,0,1,44.822,26H35.393A8.311,8.311,0,0,1,36.746,23.666Z"/><circle cx="38" cy="30" r="2"/><path d="M37,40c0-.9-.487-3-5-3s-5,2.1-5,3a5.822,5.822,0,0,0,3.211,4.569C29.307,45.223,27.5,46,24,46v2c4.637,0,6.909-1.262,8-2.316C33.091,46.738,35.363,48,40,48V46c-3.485,0-5.292-.776-6.2-1.435A5.821,5.821,0,0,0,37,40Zm-8,0c0-.589,1.233-1,3-1s3,.411,3,1c0,.962-1.419,3-3,3S29,40.962,29,40Z"/></g></svg>
