<?xml version="1.0" encoding="UTF-8"?>
<svg xmlns="http://www.w3.org/2000/svg" viewBox="0 0 64 64" width="512" height="512"><g id="Filled_outline" data-name="Filled outline"><path d="M37.132,5H26.868L15,8.04V30l4,9v7l2,6a2.993,2.993,0,0,0,3,2c1.532,0,3.3-1.637,4-3,1.687-3.281,4-7,4-7s2.312,3.719,4,7c.7,1.363,2.468,3,4,3a2.993,2.993,0,0,0,3-2l2-6V39l4-9V8.04Z" style="fill:#e8e7d6"/><path d="M19,39s2.562-8.28,7-12a8.98,8.98,0,0,0,3-6V12.975L27,5,15,8V30Z" style="fill:#d3843d"/><path d="M15,8,6.341,14.883C1.209,23.721,3.505,39.189,5,42A26.878,26.878,0,0,1,8,54c0,6.842,7,8.685,7-5Z" style="fill:#66342e"/><path d="M45,39s-2.562-8.28-7-12a8.98,8.98,0,0,1-3-6V12.975L37,5,49,8V30Z" style="fill:#d3843d"/><path d="M49,8l8.659,6.883C62.791,23.721,60.5,39.189,59,42a26.878,26.878,0,0,0-3,12c0,6.842-7,8.685-7-5Z" style="fill:#66342e"/><path d="M32,44s-2.028,3.261-3.672,6.371a4.953,4.953,0,0,0,7.344,0C34.028,47.261,32,44,32,44Z" style="fill:#f4f4e6"/><path d="M38,37c0,2.979-3.069,7-6,7s-6-4.021-6-7,3.069-3,6-3S38,34.021,38,37Z" style="fill:#66342e"/><path d="M7,54c0,3.56,1.758,6.244,4.089,6.244.835,0,2.409-.382,3.57-2.942A20.72,20.72,0,0,0,16,49V34.712l2,4.5V46a1,1,0,0,0,.051.316l2,6a1,1,0,0,0,.054.131A3.968,3.968,0,0,0,24,55c1.9,0,3.71-1.666,4.61-3.072a5.9,5.9,0,0,0,6.78,0C36.29,53.334,38.1,55,40,55a3.968,3.968,0,0,0,3.9-2.553,1,1,0,0,0,.054-.131l2-6A1,1,0,0,0,46,46V39.212l2-4.5V49a20.72,20.72,0,0,0,1.341,8.3c1.161,2.56,2.735,2.942,3.57,2.942C55.242,60.244,57,57.56,57,54a25.718,25.718,0,0,1,2.883-11.53c1.531-2.877,4.051-18.772-1.359-28.089a1.007,1.007,0,0,0-.243-.281s-9.055-7.09-9.275-7.091L37.38,4.031A1.04,1.04,0,0,0,37.132,4H26.868a1.04,1.04,0,0,0-.248.031L14.994,7.009c-.22,0-9.275,7.091-9.275,7.091a1.007,1.007,0,0,0-.243.281C.066,23.7,2.586,39.593,4.117,42.47A25.718,25.718,0,0,1,7,54ZM50,10.072l6.887,5.474c4.842,8.574,2.593,23.422,1.23,25.984A27.817,27.817,0,0,0,55,54c0,2.732-1.235,4.244-2.089,4.244-.592,0-1.246-.661-1.748-1.768C50.632,55.307,50,53.061,50,49ZM32,51a3.913,3.913,0,0,1-2.42-.846C30.439,48.57,31.356,47,32,45.926c.644,1.076,1.561,2.643,2.42,4.228A3.913,3.913,0,0,1,32,51ZM29.515,37.143l-1.03,1.714c1.347.809,1.494,1.264,1.51,1.264a2.89,2.89,0,0,1-1.431.723A6.808,6.808,0,0,1,27,37c0-1.7,1.31-2,5-2s5,.3,5,2a6.807,6.807,0,0,1-1.567,3.847A3.233,3.233,0,0,1,34,40.161c0-.005.1-.463,1.5-1.3l-1.029-1.714c-.684.41-2.766,1.659-2.442,3.364a2.818,2.818,0,0,0,1.775,1.876,2.958,2.958,0,0,1-3.62,0,2.815,2.815,0,0,0,1.769-1.873C32.28,38.8,30.2,37.553,29.515,37.143ZM36,13.1l1.733-6.913L48,8.816V29.788L45.1,36.324c-1.124-2.823-3.322-7.467-6.452-10.091A8.03,8.03,0,0,1,36,21ZM35.719,6,34.03,12.732a1,1,0,0,0-.03.243V21a9.864,9.864,0,0,0,3.358,6.767c3.864,3.238,6.3,10.341,6.642,11.39v6.681l-1.926,5.776A1.984,1.984,0,0,1,40,53c-1.04,0-2.526-1.321-3.111-2.458-1.1-2.137-2.468-4.469-3.3-5.849A9.213,9.213,0,0,0,39,37c0-4-4.212-4-7-4s-7,0-7,4a9.213,9.213,0,0,0,5.408,7.693c-.829,1.38-2.2,3.712-3.3,5.849C26.526,51.679,25.04,53,24,53a1.984,1.984,0,0,1-2.074-1.386L20,45.838V39.157c.344-1.049,2.778-8.152,6.643-11.39A9.867,9.867,0,0,0,30,21V12.975a1,1,0,0,0-.03-.243L28.281,6ZM16,8.816l10.267-2.63L28,13.1V21a8.033,8.033,0,0,1-2.642,5.233c-3.131,2.624-5.329,7.268-6.453,10.091L16,29.788Zm-8.887,6.73L14,10.072V49c0,4.061-.632,6.307-1.163,7.476-.5,1.107-1.156,1.768-1.748,1.768C10.235,58.244,9,56.732,9,54A27.817,27.817,0,0,0,5.883,41.53C4.52,38.968,2.271,24.12,7.113,15.546Z"/><circle cx="23" cy="23" r="2"/><path d="M24.707,17.707l-1.414-1.414a13.727,13.727,0,0,1-4.61,2.759l.633,1.9A15.536,15.536,0,0,0,24.707,17.707Z"/><circle cx="41" cy="23" r="2"/><path d="M45.316,19.051a13.6,13.6,0,0,1-4.609-2.758l-1.414,1.414a15.536,15.536,0,0,0,5.391,3.242Z"/><rect x="22" y="44" width="2" height="2"/><rect x="24" y="48" width="2" height="2"/><rect x="37" y="47" width="2" height="2"/><rect x="40" y="43" width="2" height="2"/><path d="M27.443,31.9c.037-.017,3.751-1.777,9.241.053l.632-1.9c-6.32-2.106-10.584-.034-10.763.054Z"/></g></svg>
