<?xml version="1.0" encoding="UTF-8"?>
<svg xmlns="http://www.w3.org/2000/svg" viewBox="0 0 64 64" width="512" height="512"><g id="Filled_outline" data-name="Filled outline"><path d="M49,27,45,14a88.676,88.676,0,0,0-13-1,88.676,88.676,0,0,0-13,1L15,27H11V37a11.013,11.013,0,0,0,3,7c3.824,3.966-3,13,18,9,21,4,14.176-5.034,18-9a11.013,11.013,0,0,0,3-7V27Z" style="fill:#7d8d9c"/><path d="M32,33S18.006,33,15.251,46.524C16.268,50.792,14.772,56.282,32,53c17.228,3.282,15.732-2.208,16.749-6.476C45.994,33,32,33,32,33Z" style="fill:#aabece"/><path d="M19,14s-3.965-4-7-4S3.884,16.725,3,20c-.844,3.125,8,7,8,7h4Z" style="fill:#aabece"/><path d="M45,14s3.965-4,7-4,8.116,6.725,9,10c.844,3.125-8,7-8,7H49Z" style="fill:#aabece"/><path d="M36,39a4.406,4.406,0,0,1-4,4,4.406,4.406,0,0,1-4-4c0-1.656,1.791-2,4-2S36,37.344,36,39Z" style="fill:#394d5c"/><circle cx="25" cy="29" r="2"/><path d="M19.447,29.9A8.474,8.474,0,0,0,22.9,26.448C23.727,24.784,24.4,24,27,24V22c-3.444,0-4.77,1.3-5.895,3.553a6.51,6.51,0,0,1-2.555,2.554L19,29Z"/><path d="M10,27.644V37a11.972,11.972,0,0,0,3.28,7.7,6.414,6.414,0,0,1,1.278,3.544c.3,1.846.641,3.939,2.615,5.321,2.5,1.746,7.207,1.892,14.827.458a47.971,47.971,0,0,0,8.619.975c2.81,0,4.841-.477,6.208-1.433,1.974-1.382,2.315-3.475,2.615-5.321A6.414,6.414,0,0,1,50.72,44.7,11.972,11.972,0,0,0,54,37V27.644c2.4-1.114,8.89-4.481,7.966-7.9C61.035,16.3,55.723,9,52,9c-2.894,0-6.2,2.865-7.338,3.936A89.976,89.976,0,0,0,32,12a89.976,89.976,0,0,0-12.662.936C18.2,11.865,14.894,9,12,9,8.277,9,2.965,16.3,2.034,19.74,1.11,23.163,7.6,26.53,10,27.644ZM47.469,47.917c-.272,1.667-.506,3.106-1.789,4-2.016,1.411-6.432,1.443-13.493.1A.987.987,0,0,0,32,52a1,1,0,0,0-.188.018c-7.062,1.346-11.476,1.314-13.492-.1-1.283-.9-1.517-2.337-1.789-4-.073-.449-.152-.916-.255-1.386C18.924,34.189,31.466,34,32,34c.131,0,13.066.152,15.724,12.532C47.621,47,47.542,47.468,47.469,47.917ZM52,11c2.28,0,7.151,5.99,8.034,9.261.364,1.348-3.423,4.028-7.251,5.739H49.738l-3.6-11.7C47.43,13.1,50.1,11,52,11ZM19.771,14.9A89.682,89.682,0,0,1,32,14a89.682,89.682,0,0,1,12.229.895l3.815,12.4A1,1,0,0,0,49,28h3v3.519A6.477,6.477,0,0,0,48,30v2c1.984,0,3.509,1.707,4,2.331V37a9.179,9.179,0,0,1-.408,2.3,8.2,8.2,0,0,0-1.885-4.012l-1.414,1.415c1.237,1.237,1.62,4.216,1.692,5.768a9.326,9.326,0,0,1-.7.83c-.107.111-.2.23-.292.347C44.925,32.151,32.138,32,32,32s-12.925.151-16.988,11.653c-.094-.117-.185-.236-.292-.347a9.071,9.071,0,0,1-.7-.832c.073-1.551.455-4.529,1.692-5.766l-1.414-1.415a8.186,8.186,0,0,0-1.882,4A9.3,9.3,0,0,1,12,37V34.331C12.491,33.707,14.016,32,16,32V30a6.477,6.477,0,0,0-4,1.519V28h3a1,1,0,0,0,.956-.706Zm-15.8,5.366C4.849,16.99,9.72,11,12,11c1.9,0,4.568,2.1,5.863,3.3L14.262,26H11.217C7.389,24.289,3.6,21.609,3.966,20.261Z"/><circle cx="39" cy="29" r="2"/><path d="M37,22v2c2.6,0,3.273.784,4.1,2.448A8.474,8.474,0,0,0,44.553,29.9l.894-1.789A6.535,6.535,0,0,1,42.9,25.553C41.77,23.3,40.444,22,37,22Z"/><path d="M27.684,19.949A16.089,16.089,0,0,0,32,21a16.089,16.089,0,0,0,4.316-1.051,4.012,4.012,0,0,1,3.983.764l1.408-1.42a6.011,6.011,0,0,0-6.023-1.241A17.179,17.179,0,0,1,32.019,19a16.464,16.464,0,0,1-3.7-.948,6.008,6.008,0,0,0-6.023,1.241l1.414,1.415A4.006,4.006,0,0,1,27.684,19.949Z"/><path d="M38.531,49.378c-.911.063-2.724-.672-5.094-5.639A5.558,5.558,0,0,0,37,39c0-3-3.764-3-5-3s-5,0-5,3a5.558,5.558,0,0,0,3.562,4.739c-2.368,4.961-4.184,5.686-5.092,5.64-2.166-.1-4.037-4.249-4.522-5.695l-1.9.633c.234.7,2.405,6.882,6.326,7.059,2.325.112,4.509-1.869,6.622-6.027,2.06,4.052,4.179,6.032,6.444,6.032.06,0,.118,0,.178-.005,3.921-.177,6.092-6.355,6.326-7.059l-1.9-.633C42.569,45.13,40.7,49.28,38.531,49.378ZM29,39c0-.3,0-1,3-1s3,.7,3,1a3.408,3.408,0,0,1-3,3A3.408,3.408,0,0,1,29,39Z"/><rect x="22" y="40" width="2" height="2"/><rect x="25" y="44" width="2" height="2"/><rect x="37" y="43" width="2" height="2"/><rect x="40" y="40" width="2" height="2"/></g></svg>
