<svg height="512" viewBox="0 0 64 64" width="512" xmlns="http://www.w3.org/2000/svg"><g id="Filled_outline" data-name="Filled outline"><path d="m51 30v-7l-11-11s-6-1-8-1-8 1-8 1l-11 11v7l-2 6 3 7 4 4 4 5c.788 1.1 1.645 2 3 2a4.7 4.7 0 0 0 4-3 3.5 3.5 0 0 1 6 0 4.7 4.7 0 0 0 4 3c1.355 0 2.212-.9 3-2l4-5 4-4 3-7z" fill="#394d5c"/><path d="m18 47 4 5c.788 1.1 1.645 2 3 2a4.7 4.7 0 0 0 4-3 3.5 3.5 0 0 1 6 0 4.7 4.7 0 0 0 4 3c1.355 0 2.212-.9 3-2l4-5 4-4 3-7s-5 1-8 0-6-4-13-4-10 3-13 4-8 0-8 0l3 7z" fill="#d3843d"/><g fill="#143441"><path d="m24 12a12.281 12.281 0 0 0 -9-2c-5 1-3 3-9 5-4.243 1.414-3 4-1 9s3 8 5 3l3-4z"/><path d="m40 12a12.281 12.281 0 0 1 9-2c5 1 3 3 9 5 4.243 1.414 3 4 1 9s-3 8-5 3l-3-4z"/><path d="m36 36a4.406 4.406 0 0 1 -4 4 4.406 4.406 0 0 1 -4-4c0-1.657 1.791-2 4-2s4 .343 4 2z"/></g><path d="m25 23c0 1.105-1.343 1-3 1a3.427 3.427 0 0 1 -3-3c0-1.1 1.343-1 3-1a3.428 3.428 0 0 1 3 3z" fill="#f9bb4b"/><path d="m39 23c0 1.105 1.343 1 3 1a3.427 3.427 0 0 0 3-3c0-1.1-1.343-1-3-1a3.428 3.428 0 0 0 -3 3z" fill="#f9bb4b"/><path d="m4.343 25.053c1.416 3.556 2.2 5.515 3.784 5.516 1.3 0 2.1-1.462 2.75-3.075l1.123-1.494v3.838l-1.949 5.846a1 1 0 0 0 .03.71l3 7a1 1 0 0 0 .212.313l3.961 3.961 3.933 4.913c.854 1.196 1.975 2.419 3.813 2.419a5.684 5.684 0 0 0 4.894-3.544 2.5 2.5 0 0 1 4.212 0 5.684 5.684 0 0 0 4.894 3.544 4.661 4.661 0 0 0 3.781-2.375l3.965-4.957 3.961-3.961a1 1 0 0 0 .212-.313l3-7a1 1 0 0 0 .03-.71l-1.949-5.846v-3.838l1.122 1.5c.654 1.613 1.446 3.075 2.75 3.075 1.588 0 2.368-1.96 3.784-5.516l.511-1.278c1.275-3.175 2.2-5.469 1.34-7.321a4.882 4.882 0 0 0 -3.192-2.4 9.523 9.523 0 0 1 -4.484-2.633 7.511 7.511 0 0 0 -4.631-2.407 13.116 13.116 0 0 0 -9.429 1.929 75.167 75.167 0 0 0 -7.771-.949 75.167 75.167 0 0 0 -7.767.949 13.106 13.106 0 0 0 -9.433-1.929 7.511 7.511 0 0 0 -4.636 2.4 9.523 9.523 0 0 1 -4.484 2.633 4.882 4.882 0 0 0 -3.192 2.4c-.857 1.852.065 4.146 1.34 7.321zm44.814 17.376-3.864 3.864c-.026.026-.2.242-.2.242-.114-3.073-.793-7.31-3.492-9.335l-1.2 1.6c2.61 1.958 2.841 7.466 2.672 10.26l-1.885 2.359c-.825 1.152-1.417 1.581-2.188 1.581a3.715 3.715 0 0 1 -3.072-2.372.906.906 0 0 0 -.071-.143 4.5 4.5 0 0 0 -7.714 0 .906.906 0 0 0 -.071.143 3.715 3.715 0 0 1 -3.072 2.372c-.771 0-1.363-.429-2.219-1.625l-1.855-2.318c-.17-2.793.058-8.3 2.674-10.257l-1.2-1.6c-2.7 2.025-3.378 6.262-3.492 9.335 0 0-.175-.216-.2-.242l-3.864-3.864-2.216-5.171a17 17 0 0 0 6.689-.309 19.664 19.664 0 0 0 2.777-1.275 19.712 19.712 0 0 1 8.553-2.622c-1.575.148-3.647.721-3.647 2.948a5.54 5.54 0 0 0 4 4.874v2.61a24.831 24.831 0 0 1 -8.2 3.536l.393 1.96a26.42 26.42 0 0 0 8.778-3.73c1.1.774 3.672 2.26 8.751 3.711l.55-1.922c-5.2-1.485-7.525-2.959-8.275-3.513v-2.652a5.54 5.54 0 0 0 4.003-4.874c0-2.227-2.072-2.8-3.646-2.948a19.712 19.712 0 0 1 8.553 2.622 19.664 19.664 0 0 0 2.777 1.275 12.2 12.2 0 0 0 3.74.494 25.335 25.335 0 0 0 2.95-.187zm-17.157-7.429c3 0 3 .7 3 1a3.409 3.409 0 0 1 -3 3 3.409 3.409 0 0 1 -3-3c0-.3 0-1 3-1zm16.8-24.02a5.659 5.659 0 0 1 3.614 1.852 11.482 11.482 0 0 0 5.266 3.117 3.166 3.166 0 0 1 2.009 1.345c.494 1.068-.334 3.127-1.381 5.735l-.508 1.284a22.319 22.319 0 0 1 -1.922 4.152 7.085 7.085 0 0 1 -.947-1.837 1.007 1.007 0 0 0 -.131-.228l-3-4a.951.951 0 0 0 -.093-.107l-10.1-10.1a10.983 10.983 0 0 1 7.193-1.213zm-24.321 1.955c1.252-.203 5.88-.935 7.521-.935s6.269.732 7.521.935l10.479 10.479v6.586a1 1 0 0 0 .051.316l1.629 4.884a16.08 16.08 0 0 1 -6.364-.15 17.889 17.889 0 0 1 -2.484-1.15 21.673 21.673 0 0 0 -21.664 0 17.889 17.889 0 0 1 -2.484 1.15 16.134 16.134 0 0 1 -6.364.15l1.629-4.885a1 1 0 0 0 .051-.315v-6.586zm-20.172 4.359a3.166 3.166 0 0 1 2.009-1.345 11.482 11.482 0 0 0 5.266-3.117 5.659 5.659 0 0 1 3.618-1.852 9.533 9.533 0 0 1 1.861-.182 11.633 11.633 0 0 1 5.337 1.393l-10.1 10.1a.951.951 0 0 0 -.093.107l-3 4a1.007 1.007 0 0 0 -.129.228 7.085 7.085 0 0 1 -.947 1.837 22.319 22.319 0 0 1 -1.929-4.15l-.514-1.284c-1.045-2.608-1.873-4.667-1.379-5.735z"/><path d="m22 25h.758a3.715 3.715 0 0 0 2.721-.681 1.8 1.8 0 0 0 .521-1.319 4.41 4.41 0 0 0 -4-4h-.393c-1.288-.006-2.391-.013-3.086.68a1.8 1.8 0 0 0 -.521 1.32 4.411 4.411 0 0 0 4 4zm-.4-4h.4c.991 0 1.921 1.266 2 1.92a8.4 8.4 0 0 1 -1.6.08h-.4c-.981 0-1.9-1.241-1.992-1.922a8.571 8.571 0 0 1 1.592-.078z"/><path d="m41.242 25h.758a4.411 4.411 0 0 0 4-4 1.8 1.8 0 0 0 -.521-1.322c-.7-.692-1.8-.682-3.086-.68l-.393.002a4.41 4.41 0 0 0 -4 4 1.8 1.8 0 0 0 .521 1.321 3.715 3.715 0 0 0 2.721.679zm.758-4h.4a8.4 8.4 0 0 1 1.6.077c-.078.654-1.009 1.923-2 1.923h-.4a8.57 8.57 0 0 1 -1.593-.081c.072-.655 1.002-1.919 1.993-1.919z"/><circle cx="23" cy="29" r="2"/><circle cx="41" cy="29" r="2"/><path d="m36.375 30.781 1.25-1.562a9.023 9.023 0 0 0 -11.25 0l1.25 1.562c.175-.143 4.424-3.46 8.75 0z"/></g></svg>