<svg height="512" viewBox="0 0 64 64" width="512" xmlns="http://www.w3.org/2000/svg"><g id="Filled_outline" data-name="Filled outline"><path d="m53 36-5-6h5l-9-14a35.412 35.412 0 0 0 -12-2 35.412 35.412 0 0 0 -12 2l-9 14h5l-5 6s5.156-2.265 6-1a27.96 27.96 0 0 0 -5 8s4.882-3.118 6-2c-.122.182-3 12 3 15l2-5a29.142 29.142 0 0 0 9 10 29.142 29.142 0 0 0 9-10l2 5c6-2 3.122-14.818 3-15 1.118-1.118 6 2 6 2a27.96 27.96 0 0 0 -5-8c.844-1.265 6 1 6 1z" fill="#5a6470"/><path d="m44 37-3-5 5-5-5-7-7-1v7a2 2 0 0 1 -4 0v-7l-7 1-5 7 5 5-3 5 4 4-1 10a29.142 29.142 0 0 0 9 10 29.142 29.142 0 0 0 9-10l-1-10z" fill="#f4f4e6"/><path d="m32 41a4 4 0 0 1 -4 4v3a4 4 0 0 0 8 0v-3a4 4 0 0 1 -4-4z" fill="#f98c96"/><path d="m36 35c0 1.657-2.343 4-4 4s-4-2.343-4-4 2.343-2 4-2 4 .343 4 2z" fill="#143441"/><path d="m20 16-7-13s-9.4 13.514-.4 24.514z" fill="#394d5c"/><path d="m18.071 19-5.071-9s-3.431 8.448 1.569 14.448z" fill="#f4f4e6"/><path d="m44 16 7-13s9.4 13.514.4 24.514z" fill="#394d5c"/><path d="m45.929 19 5.071-9s3.431 8.448-1.569 14.448z" fill="#f4f4e6"/><path d="m37 35c0-.9-.487-3-5-3s-5 2.1-5 3c0 2.2 2.8 5 5 5s5-2.8 5-5zm-5 3c-1.093 0-3-1.907-3-3 0-.687 1.555-1 3-1s3 .313 3 1c0 1.093-1.907 3-3 3z"/><circle cx="25" cy="28" r="2"/><circle cx="39" cy="28" r="2"/><path d="m10.159 29.459a1 1 0 0 0 .841 1.541h2.865l-3.633 4.36a1 1 0 0 0 1.17 1.556 19.282 19.282 0 0 1 3.631-1.2 31.433 31.433 0 0 0 -3.962 6.91 1 1 0 0 0 1.467 1.215 16.9 16.9 0 0 1 4.241-2.03 23.844 23.844 0 0 0 -.065 9.907 7.6 7.6 0 0 0 3.839 5.182 1 1 0 0 0 1.376-.523l1.24-3.1a29.9 29.9 0 0 0 8.276 8.563 1 1 0 0 0 1.11 0 29.9 29.9 0 0 0 8.276-8.563l1.24 3.1a1 1 0 0 0 1.245.577 6.022 6.022 0 0 0 3.755-4.083c1.217-3.544.64-8.625.143-11.054a16.924 16.924 0 0 1 4.248 2.031 1 1 0 0 0 1.467-1.215 31.413 31.413 0 0 0 -3.961-6.909 19.264 19.264 0 0 1 3.63 1.2 1 1 0 0 0 1.17-1.556l-3.633-4.368h2.865a1 1 0 0 0 .841-1.541l-1.219-1.9c8.587-11.342-.7-24.994-.8-25.133a1 1 0 0 0 -1.7.1l-6.596 12.245a38.392 38.392 0 0 0 -23.052 0l-6.594-12.245a1 1 0 0 0 -1.7-.1c-.1.139-9.388 13.791-.8 25.133zm21.841 30.327a28.69 28.69 0 0 1 -7.975-8.986l.613-6.122a4.97 4.97 0 0 0 2.362 1.222v2.1a5 5 0 0 0 10 0v-2.1a4.97 4.97 0 0 0 2.362-1.224l.613 6.123a28.56 28.56 0 0 1 -7.975 8.987zm1-10.786v-4.012a4.964 4.964 0 0 0 2 .9v2.112a3 3 0 0 1 -6 0v-2.108a4.964 4.964 0 0 0 2-.9v4.008zm6.293-8.707a1.83 1.83 0 0 0 -.293.707 3 3 0 0 1 -6 0 1 1 0 0 0 -2 0 3 3 0 0 1 -6 0 1.83 1.83 0 0 0 -.293-.707l-3.448-3.448 2.6-4.33a1 1 0 0 0 -.15-1.222l-4.4-4.4 4.259-5.963 5.432-.777v5.847a3 3 0 0 0 6 0v-5.847l5.435.776 4.259 5.963-4.4 4.4a1 1 0 0 0 -.15 1.222l2.6 4.33zm11.755-35.274c1.927 3.5 5.961 12.724.419 20.748l-.788-1.227-.036-.056c4.645-6.319 1.428-14.5 1.283-14.86a1 1 0 0 0 -.863-.624 1.008 1.008 0 0 0 -.934.507l-4.257 7.554-.712-1.108zm-1.568 17.657-2.38-3.71 3.61-6.406c.542 2.475.942 6.62-1.23 10.116zm-28.82-5.854a36.2 36.2 0 0 1 22.68 0l7.221 11.233.607.944h-3.168a1 1 0 0 0 -.768 1.64l2.682 3.218c-1.646-.388-3.107-.37-3.746.587a1 1 0 0 0 .125 1.262 21.687 21.687 0 0 1 3.456 4.9c-1.73-.791-3.534-1.24-4.456-.318a1 1 0 0 0 -.225 1.069c.414 1.393 2.071 10.763-1.539 13.267l-1.548-3.87-.939-9.387 3.665-3.665a1 1 0 0 0 .15-1.222l-2.6-4.33 4.448-4.448a1 1 0 0 0 .107-1.288l-5-7a1 1 0 0 0 -.672-.409l-7-1a1 1 0 0 0 -1.14.995v7a1 1 0 0 1 -2 0v-7a1 1 0 0 0 -1.142-.99l-7 1a1 1 0 0 0 -.672.409l-5 7a1 1 0 0 0 .107 1.288l4.448 4.448-2.6 4.33a1 1 0 0 0 .15 1.222l3.665 3.665-.939 9.387-1.49 3.731c-3.622-3.139-2.019-11.785-1.6-13.114a1 1 0 0 0 -.22-1.083c-.922-.923-2.727-.473-4.457.318a21.645 21.645 0 0 1 3.457-4.9 1 1 0 0 0 .125-1.262c-.639-.957-2.1-.975-3.746-.587l2.682-3.218a1 1 0 0 0 -.768-1.644h-3.168l.607-.944zm-7.366-4.262 3.61 6.406-2.384 3.71c-2.172-3.496-1.772-7.641-1.226-10.116zm-2.917-1.12a27.772 27.772 0 0 1 2.573-6.423l5.89 10.938-.712 1.108-4.257-7.554a1 1 0 0 0 -1.8.115c-.145.356-3.362 8.541 1.283 14.86l-.825 1.284c-2.817-4.063-3.543-8.876-2.152-14.328z"/></g></svg>