<?xml version="1.0" encoding="UTF-8"?>
<svg xmlns="http://www.w3.org/2000/svg" viewBox="0 0 64 64" width="512" height="512"><g id="Filled_outline" data-name="Filled outline"><path d="M61,31a82.68,82.68,0,0,0-11-9l3-2-4-2c3-5,3-12,3-12A25.393,25.393,0,0,0,40,9a37.839,37.839,0,0,0-8-1,37.839,37.839,0,0,0-8,1A25.393,25.393,0,0,0,12,6s0,7,3,12l-4,2,3,2A82.68,82.68,0,0,0,3,31l4,1a55.616,55.616,0,0,0-4,8H7s0,3,6,11l8-1,11,8,11-8,8,1c6-8,6-11,6-11h4a55.616,55.616,0,0,0-4-8Z" style="fill:#e8e7d6"/><path d="M32.307,38h-.614A6.95,6.95,0,0,1,26,41v3a6,6,0,0,0,6,6h0a6,6,0,0,0,6-6V41A6.95,6.95,0,0,1,32.307,38Z" style="fill:#f98c96"/><path d="M36,31.8c0,1.546-1.791,4.2-4,4.2s-4-2.654-4-4.2S29.791,29,32,29,36,30.254,36,31.8Z" style="fill:#143441"/><path d="M61.964,31.267a1,1,0,0,0-.257-.974,81.5,81.5,0,0,0-9.929-8.276l1.777-1.185a1,1,0,0,0-.108-1.727L50.38,17.572A28.752,28.752,0,0,0,53,6a1,1,0,0,0-1-1A26.664,26.664,0,0,0,39.851,7.938,38.31,38.31,0,0,0,32,7a38.31,38.31,0,0,0-7.851.938A26.664,26.664,0,0,0,12,5a1,1,0,0,0-1,1,28.752,28.752,0,0,0,2.62,11.572l-3.067,1.533a1,1,0,0,0-.108,1.727l1.777,1.185a81.5,81.5,0,0,0-9.929,8.276,1,1,0,0,0,.465,1.677l2.708.677a47.355,47.355,0,0,0-3.414,7.037A1,1,0,0,0,3,41H6.164c.388,1.514,1.69,4.806,6.036,10.6a1,1,0,0,0,.924.392l7.607-.951,10.681,7.768a1,1,0,0,0,1.176,0l10.681-7.768,7.607.951A.992.992,0,0,0,51.8,51.6c4.346-5.794,5.648-9.086,6.036-10.6H61a1,1,0,0,0,.948-1.316,47.355,47.355,0,0,0-3.414-7.037l2.708-.677A1,1,0,0,0,61.964,31.267Zm-5.206-.237a1,1,0,0,0-.615,1.485A66.789,66.789,0,0,1,59.542,39H57.6c-.668-1.221-2.332-3.982-4.156-4.9l-.894,1.79c1.167.583,2.647,2.835,3.414,4.291-.144.763-.955,3.7-5.421,9.75l-7.422-.928a1.018,1.018,0,0,0-.712.183L32,56.764,21.588,49.191A1,1,0,0,0,21,49a1.032,1.032,0,0,0-.124.008l-7.422.928c-4.489-6.079-5.286-9.018-5.424-9.745.765-1.456,2.246-3.711,3.417-4.3l-.894-1.79C8.729,35.018,7.065,37.779,6.4,39H4.458a66.922,66.922,0,0,1,3.4-6.485,1,1,0,0,0-.615-1.485l-2.253-.563a84.754,84.754,0,0,1,9.566-7.635,1,1,0,0,0,0-1.664l-1.567-1.044L15.447,18.9a1,1,0,0,0,.41-1.41c-2.16-3.6-2.687-8.391-2.816-10.462A24.573,24.573,0,0,1,23.486,9.858a1,1,0,0,0,.756.112A36.986,36.986,0,0,1,32,9a37.186,37.186,0,0,1,7.758.97,1,1,0,0,0,.757-.113A24.387,24.387,0,0,1,50.96,7.023c-.127,2.068-.652,6.853-2.817,10.462a1,1,0,0,0,.41,1.41l2.459,1.229-1.567,1.044a1,1,0,0,0,0,1.664,84.754,84.754,0,0,1,9.566,7.635Z"/><path d="M38,40c-2.783,0-5-2.154-5-3v-.133A5.87,5.87,0,0,0,37,31.8c0-2.131-2.2-3.8-5-3.8s-5,1.669-5,3.8a5.87,5.87,0,0,0,4,5.067V37c0,.846-2.217,3-5,3-2.626,0-4-1.953-4-3H20c0,1.859,1.773,4.466,5,4.923V44a7,7,0,0,0,14,0V41.923c3.227-.457,5-3.064,5-4.923H42C42,38.047,40.626,40,38,40Zm-9-8.2c0-.852,1.232-1.8,3-1.8s3,.948,3,1.8c0,1.054-1.389,3.2-3,3.2S29,32.854,29,31.8ZM37,44a5,5,0,0,1-10,0V41.928a8.351,8.351,0,0,0,4-1.7V47h2V40.233a8.351,8.351,0,0,0,4,1.7Z"/><path d="M20.812,14.585a1,1,0,0,0,.136-.9l-1-3-1.9.632L18.612,13H17v2h3A1,1,0,0,0,20.812,14.585Z"/><path d="M46.948,11.316l-1.9-.632-1,3A1,1,0,0,0,45,15h3V13H46.388Z"/><circle cx="25" cy="26" r="2"/><circle cx="39" cy="26" r="2"/></g></svg>
