<?xml version="1.0" encoding="UTF-8"?>
<svg xmlns="http://www.w3.org/2000/svg" viewBox="0 0 64 64" width="512" height="512"><g id="Filled_outline" data-name="Filled outline"><path d="M37.159,8H26.841L16,12V34l2,8v9a5.133,5.133,0,0,0,5,5c1.928,0,4.4-1.977,5-6,.561-3.75,4-8,4-8s3.439,4.25,4,8c.6,4.023,3.072,6,5,6a5.133,5.133,0,0,0,5-5V42l2-8V12Z" style="fill:#e8e7d6"/><path d="M18,42s4-11,11-13V16L27,8,16,12V34Z" style="fill:#d3843d"/><path d="M16,12,5,20c-3.375,2.688-1.5,6.174,0,9A26.743,26.743,0,0,1,8,41c0,6.879,8,7.757,8-6Z" style="fill:#ad6327"/><path d="M46,42S42,31,35,29V16l2-8,11,4V34Z" style="fill:#d3843d"/><path d="M48,12l11,8c3.437,2.438,1.5,6.174,0,9a26.743,26.743,0,0,0-3,12c0,6.879-8,7.757-8-6Z" style="fill:#ad6327"/><path d="M36,38c0,1.657-2.343,4-4,4s-4-2.343-4-4,2.343-2,4-2S36,36.343,36,38Z" style="fill:#394d5c"/><path d="M36,50c-.561-3.75-4-8-4-8s-3.439,4.25-4,8c-.017.112-.049.2-.069.314a5.753,5.753,0,0,0,8.138,0C36.049,50.205,36.017,50.112,36,50Z" style="fill:#f4f4e6"/><circle cx="24" cy="25" r="2"/><path d="M7,41c0,3.847,2.132,5.859,4.239,5.859,1.588,0,3.082-1.114,4.1-3.058a13.4,13.4,0,0,0,1.194-3.556L17,42.123V51a6.157,6.157,0,0,0,6,6c2.1,0,4.458-1.717,5.536-4.992a6.544,6.544,0,0,0,6.928,0C36.542,55.283,38.9,57,41,57a6.157,6.157,0,0,0,6-6V42.123l.469-1.878A13.4,13.4,0,0,0,48.663,43.8c1.016,1.944,2.51,3.058,4.1,3.058C54.868,46.859,57,44.847,57,41a25.715,25.715,0,0,1,2.883-11.53c1.454-2.735,3.889-7.312-.3-10.279l-11-8a1.835,1.835,0,0,0-.242-.129l-10.841-4A1,1,0,0,0,37.159,7H26.841a1,1,0,0,0-.346.062l-10.841,4a1.821,1.821,0,0,0-.242.129L4.377,19.218c-4.013,3.2-1.764,7.423-.26,10.252A25.715,25.715,0,0,1,7,41ZM49,13.964l9.421,6.852c2.556,1.812,1.432,4.452-.3,7.714A27.81,27.81,0,0,0,55,41c0,2.507-1.154,3.859-2.239,3.859-.819,0-1.667-.723-2.326-1.984S49,39.241,49,35ZM29.039,49.911A17.947,17.947,0,0,1,32,43.682a17.947,17.947,0,0,1,2.961,6.229A4.734,4.734,0,0,1,29.039,49.911ZM29,38c0-.687,1.555-1,3-1s3,.313,3,1c0,1.093-1.907,3-3,3S29,39.093,29,38Zm7-21.877,1.713-6.852L47,12.7v21.18l-1.257,5.029C44.1,35.535,40.79,30.068,36,28.277ZM35.719,9,34.03,15.757A1,1,0,0,0,34,16V29a1,1,0,0,0,.725.961C40.717,31.673,44.489,40.871,45,42.184V51a4.159,4.159,0,0,1-4,4c-1.253,0-3.45-1.4-4.011-5.148a19.189,19.189,0,0,0-3.336-7.3C35.389,41.675,37,39.665,37,38c0-.9-.487-3-5-3s-5,2.1-5,3c0,1.665,1.611,3.675,3.347,4.553a19.189,19.189,0,0,0-3.336,7.3C26.45,53.6,24.253,55,23,55a4.159,4.159,0,0,1-4-4V42.184c.511-1.313,4.283-10.511,10.275-12.223A1,1,0,0,0,30,29V16a1,1,0,0,0-.03-.243L28.281,9ZM17,12.7l9.287-3.426L28,16.123V28.277c-4.79,1.791-8.1,7.258-9.743,10.629L17,33.877ZM5.588,20.809,15,13.964V35c0,4.241-.78,6.623-1.435,7.875s-1.507,1.984-2.326,1.984C10.154,44.859,9,43.507,9,41A27.84,27.84,0,0,0,5.867,28.5C4.136,25.246,3.105,22.787,5.588,20.809Z"/><circle cx="40" cy="25" r="2"/><path d="M27.512,34.192a9.183,9.183,0,0,1,8.973,0l1.03-1.715c-5.452-3.272-10.8-.136-11.03,0Z"/></g></svg>
