<?xml version="1.0" encoding="UTF-8"?>
<svg xmlns="http://www.w3.org/2000/svg" viewBox="0 0 64 64" width="512" height="512"><g id="Filled_outline" data-name="Filled outline"><path d="M56.552,35.053a8.681,8.681,0,0,1-2.608-6.59c.037-.584.056-1.1.056-1.463a10.928,10.928,0,0,0-1.568-5.561C56.881,15.229,55,3,55,3c-4.85.808-12.31,7.494-14.994,10.029a31.726,31.726,0,0,0-15.224-.2C21.937,10.162,14.728,3.788,10,3c0,0-1.73,11.26,2.063,17.658A11.144,11.144,0,0,0,10,27c0,.361.019.879.056,1.463a8.681,8.681,0,0,1-2.608,6.59A8.218,8.218,0,0,0,5,41c0,8.837,12.088,20,27,20S59,49.837,59,41A8.218,8.218,0,0,0,56.552,35.053Z" style="fill:#f9bb4b"/><path d="M32,61c14.912,0,27-11.163,27-20a8.128,8.128,0,0,0-1.488-4.789C55.459,37.994,52.556,40,49,40c-7.518,0-8.407-7-17-7s-9.482,7-17,7c-3.556,0-6.459-2.006-8.512-3.789A8.128,8.128,0,0,0,5,41C5,49.837,17.088,61,32,61Z" style="fill:#f4f4e6"/><path d="M32,52a4,4,0,0,0,4-4V47c-2.761,0-4-1.343-4-3,0,1.657-1.239,3-4,3v1A4,4,0,0,0,32,52Z" style="fill:#f98c96"/><path d="M25,25c0,1.1-1.343,1-3,1a3.428,3.428,0,0,1-3-3c0-1.105,1.343-1,3-1A3.427,3.427,0,0,1,25,25Z" style="fill:#f4f4e6"/><path d="M39,25c0,1.1,1.343,1,3,1a3.428,3.428,0,0,0,3-3c0-1.105-1.343-1-3-1A3.427,3.427,0,0,0,39,25Z" style="fill:#f4f4e6"/><path d="M22,16a75.087,75.087,0,0,0-8-7,35,35,0,0,0,2,10Z" style="fill:#d3843d"/><path d="M43,16a75.087,75.087,0,0,1,8-7,35,35,0,0,1-2,10Z" style="fill:#d3843d"/><path d="M36,39a4.406,4.406,0,0,1-4,4,4.406,4.406,0,0,1-4-4c0-1.657,1.791-2,4-2S36,37.343,36,39Z" style="fill:#143441"/><path d="M36,46c-1.12,0-3-.26-3-2v-.126A5.54,5.54,0,0,0,37,39c0-3-3.764-3-5-3s-5,0-5,3a5.54,5.54,0,0,0,4,4.874V44c0,1.74-1.88,2-3,2-2.289,0-4-1.056-4-2H22c0,2.015,2.129,3.633,5,3.942V48a5,5,0,0,0,10,0v-.058c2.871-.309,5-1.927,5-3.942H40C40,44.944,38.289,46,36,46Zm-7-7c0-.3,0-1,3-1s3,.7,3,1a3.409,3.409,0,0,1-3,3A3.409,3.409,0,0,1,29,39Zm6,9a3,3,0,0,1-6,0v-.076a5.508,5.508,0,0,0,2-.606V49h2V47.318a5.508,5.508,0,0,0,2,.606Z"/><path d="M21.608,21c-1.286-.011-2.392-.013-3.087.68A1.8,1.8,0,0,0,18,23a4.411,4.411,0,0,0,4,4h.392l.366,0a3.711,3.711,0,0,0,2.721-.682A1.8,1.8,0,0,0,26,25a4.411,4.411,0,0,0-4-4ZM24,24.924A8.086,8.086,0,0,1,22.4,25H22c-.981,0-1.9-1.24-1.992-1.922A8.344,8.344,0,0,1,21.6,23H22C22.991,23,23.922,24.269,24,24.924Z"/><path d="M16,30a14.62,14.62,0,0,1,7.448,1.834l1.107-1.666A16.314,16.314,0,0,0,16,28Z"/><path d="M41.242,27.006l.366,0H42a4.411,4.411,0,0,0,4-4,1.8,1.8,0,0,0-.521-1.321c-.7-.693-1.8-.692-3.087-.68H42a4.411,4.411,0,0,0-4,4,1.8,1.8,0,0,0,.521,1.321A3.711,3.711,0,0,0,41.242,27.006ZM42,23h.4a8.1,8.1,0,0,1,1.594.08C43.922,23.737,42.991,25,42,25h-.4a8.324,8.324,0,0,1-1.594-.08C40.078,24.269,41.009,23,42,23Z"/><path d="M40.555,31.832A14.425,14.425,0,0,1,48,30V28a16.314,16.314,0,0,0-8.555,2.168Z"/><path d="M15.617,19.924a1,1,0,0,0,.83-.029l6-3a1,1,0,0,0,.26-1.6,74.728,74.728,0,0,0-8.152-7.125A1,1,0,0,0,13,9a35.723,35.723,0,0,0,2.052,10.316A1,1,0,0,0,15.617,19.924Zm4.68-4.191-3.7,1.85a39.242,39.242,0,0,1-1.42-6.454C17.024,12.623,19.1,14.579,20.3,15.733Z"/><path d="M57.267,34.353a7.633,7.633,0,0,1-2.325-5.827C54.981,27.917,55,27.377,55,27a11.758,11.758,0,0,0-1.4-5.51c4.178-6.581,2.461-18.14,2.384-18.642a1,1,0,0,0-1.152-.834c-4.857.809-11.91,6.924-15.112,9.91a32.942,32.942,0,0,0-14.647-.187c-3.73-3.459-10.268-8.949-14.913-9.723a1,1,0,0,0-1.152.835C8.94,3.31,7.362,13.938,10.9,20.618A11.913,11.913,0,0,0,9,27c0,.377.019.917.058,1.526a7.637,7.637,0,0,1-2.325,5.828A9.21,9.21,0,0,0,4,41c0,9.512,12.49,21,28,21S60,50.512,60,41a9.21,9.21,0,0,0-2.733-6.646Zm-49.1,1.4A9.609,9.609,0,0,0,11.054,28.4C11.019,27.841,11,27.346,11,27a10.1,10.1,0,0,1,1.888-5.776,1,1,0,0,0,.035-1.076c-2.9-4.888-2.373-12.995-2.067-15.911,4.6,1.452,11.209,7.416,13.242,9.323a1,1,0,0,0,.915.243A30.879,30.879,0,0,1,39.749,14a.985.985,0,0,0,.944-.239c2.063-1.948,8.776-8.049,13.452-9.52.323,3.061.891,11.85-2.526,16.621a1,1,0,0,0-.05,1.088A9.91,9.91,0,0,1,53,27c0,.346-.019.841-.054,1.4a9.606,9.606,0,0,0,2.891,7.353c.1.1.191.211.285.318A11.572,11.572,0,0,1,49,39c-3.288,0-5.127-1.442-7.257-3.111C39.419,34.065,36.785,32,32,32s-7.419,2.065-9.743,3.889C20.127,37.558,18.288,39,15,39a11.568,11.568,0,0,1-7.122-2.93C7.972,35.964,8.062,35.857,8.163,35.753ZM58,41c0,8.553-12,19-26,19S6,49.553,6,41a7.229,7.229,0,0,1,.749-3.285A13.293,13.293,0,0,0,15,41c3.979,0,6.272-1.8,8.491-3.538C25.761,35.682,27.905,34,32,34s6.239,1.682,8.509,3.462C42.728,39.2,45.021,41,49,41a13.293,13.293,0,0,0,8.251-3.285A7.229,7.229,0,0,1,58,41Z"/><path d="M42.553,16.9l6,3a1,1,0,0,0,1.4-.579A35.723,35.723,0,0,0,52,9a1,1,0,0,0-1.555-.832,74.728,74.728,0,0,0-8.152,7.125,1,1,0,0,0,.26,1.6Zm7.272-5.768A39.19,39.19,0,0,1,48.4,17.583l-3.7-1.85C45.9,14.578,47.978,12.622,49.825,11.127Z"/></g></svg>
