<?xml version="1.0" encoding="UTF-8"?>
<svg xmlns="http://www.w3.org/2000/svg" viewBox="0 0 64 64" width="512" height="512"><g id="Filled_outline" data-name="Filled outline"><path d="M15,16V36l6,15c.992,2.381,6.42,5,9,5h4c2.58,0,8.008-2.619,9-5l6-15V16S41,9,32,9,15,16,15,16Z" style="fill:#d3843d"/><path d="M34,31V17a2,2,0,0,0-2-2h0a2,2,0,0,0-2,2V31c-2.591,6.909-11.143,8.6-13.429,8.928L21,51c.992,2.381,6.42,5,9,5h4c2.58,0,8.008-2.619,9-5l4.429-11.072C45.143,39.6,36.591,37.909,34,31Z" style="fill:#e8e7d6"/><path d="M32,52a4,4,0,0,0,4-4V47c-2.761,0-4-1.343-4-3,0,1.657-1.239,3-4,3v1A4,4,0,0,0,32,52Z" style="fill:#f98c96"/><path d="M15,16,5,24c-3.328,3.129-1.4,7.375,0,10,1.781,3.349,3,11.37,3,15,0,6.39,7,6.781,7-6Z" style="fill:#ad6327"/><path d="M36,39a4.406,4.406,0,0,1-4,4,4.406,4.406,0,0,1-4-4c0-1.657,1.791-2,4-2S36,37.343,36,39Z" style="fill:#394d5c"/><path d="M49,16l10,8c3.328,3.129,1.4,7.375,0,10-1.781,3.349-3,11.37-3,15,0,6.39-7,6.781-7-6Z" style="fill:#ad6327"/><path d="M27,39a5.54,5.54,0,0,0,4,4.874V44c0,1.74-1.879,2-3,2-2.29,0-4-1.056-4-2H22c0,2.015,2.129,3.633,5,3.942V48a5,5,0,0,0,10,0v-.058c2.871-.309,5-1.927,5-3.942H40c0,.944-1.71,2-4,2-1.121,0-3-.26-3-2v-.126A5.54,5.54,0,0,0,37,39c0-3-3.763-3-5-3S27,36,27,39Zm8,8.924V48a3,3,0,0,1-6,0v-.076a5.508,5.508,0,0,0,2-.606V49h2V47.318A5.508,5.508,0,0,0,35,47.924ZM35,39a3.409,3.409,0,0,1-3,3,3.409,3.409,0,0,1-3-3c0-.3,0-1,3-1S35,38.7,35,39Z"/><circle cx="24" cy="29" r="2"/><path d="M49.641,15.232C49.193,14.842,41.2,8,32,8s-17.194,6.843-17.641,7.232L4.315,23.271c-4.1,3.857-1.266,9.191-.2,11.2C5.762,37.562,7,45.417,7,49c0,3.51,1.869,5.347,3.716,5.347,1.465,0,2.841-1.084,3.776-2.973A19.518,19.518,0,0,0,16,43V41.193l4.077,10.192C21.283,54.28,27.147,57,30,57h4c2.853,0,8.717-2.72,9.929-5.629L48,41.193V43a19.518,19.518,0,0,0,1.508,8.374c.935,1.889,2.311,2.973,3.776,2.973C55.131,54.347,57,52.51,57,49c0-3.583,1.238-11.438,2.883-14.53,1.068-2.008,3.9-7.342-.258-11.251ZM14,43c0,4.016-.707,6.288-1.3,7.487-.576,1.164-1.318,1.86-1.984,1.86C9.873,52.347,9,51.1,9,49c0-3.825-1.243-11.945-3.117-15.47-1.576-2.963-2.832-6.326-.258-8.749L14,18.081Zm28.077,7.615C41.289,52.508,36.319,55,34,55H30c-2.319,0-7.289-2.492-8.071-4.371L17.957,40.7c3.489-.7,10.561-2.9,12.98-9.348A1.009,1.009,0,0,0,31,31V17a1,1,0,0,1,2,0V31a1.009,1.009,0,0,0,.063.352C35.482,37.8,42.554,40,46.043,40.7ZM48,35.808l-1.2,3c-2.945-.54-9.572-2.359-11.8-7.995V17a3,3,0,0,0-6,0V30.814c-2.228,5.636-8.855,7.455-11.8,7.995l-1.2-3V16.471C17.592,15.189,24.505,10,32,10s14.408,5.189,16,6.471ZM58.117,33.53C56.243,37.055,55,45.175,55,49c0,2.095-.873,3.347-1.716,3.347-.666,0-1.408-.7-1.984-1.86C50.707,49.288,50,47.016,50,43V18.08l8.315,6.649C60.949,27.2,59.693,30.567,58.117,33.53Z"/><circle cx="40" cy="29" r="2"/></g></svg>
