<svg height="512" viewBox="0 0 64 64" width="512" xmlns="http://www.w3.org/2000/svg"><g id="Filled_outline" data-name="Filled outline"><path d="m37.159 9h-10.318l-10.841 3v22l2 8v7a5.133 5.133 0 0 0 5 5c1.928 0 4.4.023 5-4 .561-3.75 4-8 4-8s3.439 4.25 4 8c.6 4.023 3.072 4 5 4a5.133 5.133 0 0 0 5-5v-7l2-8v-22z" fill="#d3843d"/><path d="m35 28h-6c-7 2-11 14-11 14v7a5.133 5.133 0 0 0 5 5c1.928 0 4.4.023 5-4 .561-3.75 4-8 4-8s3.439 4.25 4 8c.6 4.023 3.072 4 5 4a5.133 5.133 0 0 0 5-5v-7s-4-12-11-14z" fill="#e8e7d6"/><path d="m29 28 .6-7.2-2.807-1.4a4 4 0 0 0 -4.825.974l-3.968 4.626 5.349 7.131a11.941 11.941 0 0 1 5.651-4.131z" fill="#394d5c"/><path d="m35 28-.6-7.2 2.807-1.4a4 4 0 0 1 4.825.974l3.968 4.626-5.349 7.131a11.941 11.941 0 0 0 -5.651-4.131z" fill="#394d5c"/><path d="m16 12-7 4c-7 3-6.5 5.174-5 8 1.917 3.605 4 3.093 4 7 0 6.879 8 6.9 8-6.86z" fill="#66342e"/><path d="m48 12 7 4c7 3 6.5 5.174 5 8-1.917 3.605-4 3.093-4 7 0 6.879-8 6.9-8-6.86z" fill="#66342e"/><path d="m36 38c0 1.657-2.343 4-4 4s-4-2.343-4-4 2.343-2 4-2 4 .343 4 2z" fill="#394d5c"/><path d="m36 50c-.561-3.75-4-8-4-8s-3.439 4.25-4 8c-.017.112-.049.2-.069.314a5.753 5.753 0 0 0 8.138 0c-.02-.109-.052-.202-.069-.314z" fill="#f4f4e6"/><path d="m35 28h-6l1-12a2.025 2.025 0 0 1 2-2 2.025 2.025 0 0 1 2 2z" fill="#f4f4e6"/><path d="m5.52 27.594a3.821 3.821 0 0 1 1.48 3.406c0 3.8 2.066 5.525 3.986 5.525 1.513 0 2.955-1.026 4.014-2.814v.289a1 1 0 0 0 .03.243l1.97 7.88v6.877a6.164 6.164 0 0 0 6.033 6c1.658-.011 4.281-.014 5.472-3.01a6.55 6.55 0 0 0 6.989 0c1.183 2.98 3.779 3.01 5.474 3.01h.032a6.157 6.157 0 0 0 6-6v-6.877l1.97-7.88a1 1 0 0 0 .03-.243v-.289c1.059 1.788 2.5 2.814 4.014 2.814 1.92 0 3.986-1.725 3.986-5.525a3.821 3.821 0 0 1 1.48-3.406 11.952 11.952 0 0 0 2.4-3.124c.706-1.328 1.411-2.883.833-4.525-.613-1.745-2.546-3.245-6.267-4.845l-6.955-3.96a1.039 1.039 0 0 0 -.224-.1l-10.841-3a1 1 0 0 0 -.267-.04h-10.318a1 1 0 0 0 -.267.036l-10.841 3a1.039 1.039 0 0 0 -.224.1l-6.955 3.964c-3.721 1.6-5.654 3.1-6.27 4.845-.578 1.642.127 3.2.833 4.525a11.952 11.952 0 0 0 2.403 3.124zm43.48-13.871 5.5 3.145a.97.97 0 0 0 .1.051c3.11 1.333 4.819 2.54 5.223 3.69.28.8-.049 1.674-.712 2.921a10.094 10.094 0 0 1 -2.046 2.644 5.733 5.733 0 0 0 -2.065 4.826c0 2.314-1 3.525-1.986 3.525-.844 0-1.769-.8-2.475-2.139s-1.539-3.845-1.539-8.246zm-19.961 36.188a17.955 17.955 0 0 1 2.961-6.229 17.955 17.955 0 0 1 2.961 6.229 4.734 4.734 0 0 1 -5.922 0zm-.039-11.911c0-.687 1.555-1 3-1s3 .313 3 1c0 1.093-1.906 3-3 3s-3-1.907-3-3zm16 11a4.164 4.164 0 0 1 -4.033 4h-.036c-1.788 0-3.335-.026-3.874-2.777 0-.029-.067-.369-.068-.371a19.189 19.189 0 0 0 -3.336-7.3c1.736-.877 3.347-2.887 3.347-4.552 0-.9-.487-3-5-3s-5 2.1-5 3c0 1.665 1.611 3.675 3.347 4.553a19.189 19.189 0 0 0 -3.336 7.3c0 .029-.066.342-.068.371-.543 2.75-2.087 2.776-3.906 2.776a4.183 4.183 0 0 1 -4.037-4v-6.832c.477-1.342 4.212-11.344 10.145-13.168h5.71c5.933 1.824 9.668 11.826 10.145 13.168zm-21.588-18.451-4.131-5.507 3.447-4.02a2.989 2.989 0 0 1 3.618-.731l2.2 1.1-.489 5.867a12.577 12.577 0 0 0 -4.645 3.291zm6.674-3.549.914-10.929a1.006 1.006 0 1 1 2 .012l.914 10.917zm5.366-5.608 2.2-1.1a2.994 2.994 0 0 1 3.619.731l3.446 4.02-4.131 5.507a12.577 12.577 0 0 0 -4.647-3.29zm-18.452-8.631 9.977-2.761h10.046l9.977 2.761v21.116l-1.22 4.879a33.7 33.7 0 0 0 -3.867-6.641l4.887-6.515a1 1 0 0 0 -.041-1.251l-3.967-4.629a4.994 4.994 0 0 0 -6.032-1.22l-1.487.743-.273-3.314a3 3 0 0 0 -6-.012l-.277 3.328-1.483-.745a4.993 4.993 0 0 0 -6.031 1.218l-3.968 4.629a1 1 0 0 0 -.041 1.253l4.887 6.515a33.7 33.7 0 0 0 -3.867 6.641l-1.22-4.879zm-12.829 7.848c.4-1.15 2.113-2.357 5.223-3.69a.97.97 0 0 0 .1-.051l5.506-3.145v10.417c0 4.4-.837 6.913-1.539 8.246s-1.631 2.139-2.475 2.139c-.986 0-1.986-1.211-1.986-3.525a5.733 5.733 0 0 0 -2.071-4.826 10.094 10.094 0 0 1 -2.046-2.644c-.663-1.247-.992-2.125-.712-2.921z"/><circle cx="24" cy="25" r="2"/><circle cx="40" cy="25" r="2"/><path d="m26.485 32.476 1.027 1.716a9.194 9.194 0 0 1 8.973 0l1.03-1.715c-5.453-3.277-10.805-.137-11.03-.001z"/><path d="m21 45h2v2h-2z"/><path d="m23 49h2v2h-2z"/><path d="m25 43h2v2h-2z"/><path d="m38 45h2v2h-2z"/><path d="m41 49h2v2h-2z"/><path d="m41 42h2v2h-2z"/></g></svg>