<svg height="512" viewBox="0 0 64 64" width="512" xmlns="http://www.w3.org/2000/svg"><g id="Filled_outline" data-name="Filled outline"><path d="m43 12h-22l-10 14 2 25a3.285 3.285 0 0 0 3 3 3.991 3.991 0 0 0 4-4v-8h24v8a3.991 3.991 0 0 0 4 4 3.285 3.285 0 0 0 3-3l2-25z" fill="#995f5b"/><path d="m32 31c-4.418 0-8 4.925-8 11h16c0-6.075-3.582-11-8-11z" fill="#ceac9a"/><path d="m20 42v3c0 4.418 5.373 10 12 10s12-5.582 12-10v-3z" fill="#bc9888"/><path d="m24 42h-4l1-5z" fill="#f4f4e6"/><path d="m40 42h4l-1-5z" fill="#f4f4e6"/><path d="m36 36a4.406 4.406 0 0 1 -4 4 4.406 4.406 0 0 1 -4-4c0-1.657 1.791-2 4-2s4 .343 4 2z" fill="#143441"/><path d="m11 26-2-5-2 4-4-6s5-7 10-11 8 4 8 4" fill="#66342e"/><path d="m53 26 2-5 2 4 4-6s-5-7-10-11-8 4-8 4" fill="#66342e"/><path d="m37 36c0-3-3.764-3-5-3s-5 0-5 3a5.421 5.421 0 0 0 5 5 5.421 5.421 0 0 0 5-5zm-5 3a3.409 3.409 0 0 1 -3-3c0-.3 0-1 3-1s3 .7 3 1a3.409 3.409 0 0 1 -3 3z"/><path d="m32 52v-2a6.9 6.9 0 0 1 -6.107-3.452l-1.788.9a8.9 8.9 0 0 0 7.895 4.552z"/><circle cx="22" cy="26" r="2"/><circle cx="42" cy="26" r="2"/><path d="m35.788 21.133c-1.442 1.385-1.791 3.64-1.842 5.214a11.648 11.648 0 0 0 -3.889.067c-.043-1.577-.383-3.877-1.845-5.281a4.843 4.843 0 0 0 -4.376-1.119c-5.678.946-6.806.986-6.836.986v2a67.162 67.162 0 0 0 7.164-1.014 2.927 2.927 0 0 1 2.66.588c1.047 1 1.255 3.019 1.238 4.358a12.361 12.361 0 0 0 -2.617 1.236l1.11 1.664c.054-.036 5.507-3.587 10.89 0l1.11-1.664a11.853 11.853 0 0 0 -2.621-1.313c-.01-1.334.21-3.29 1.239-4.279a2.933 2.933 0 0 1 2.663-.59 67.162 67.162 0 0 0 7.164 1.014l.015-2c-.045 0-1.173-.04-6.851-.986a4.841 4.841 0 0 0 -4.376 1.119z"/><path d="m31 16h2v7h-2z"/><path d="m51.625 7.219a4.932 4.932 0 0 0 -4.513-1.184c-2.55.7-4.161 3.642-4.771 4.965h-20.682c-.61-1.323-2.221-4.263-4.771-4.965a4.935 4.935 0 0 0 -4.513 1.184c-5.05 4.04-9.981 10.909-10.188 11.2a1 1 0 0 0 -.019 1.136l4 6a.975.975 0 0 0 .894.445 1 1 0 0 0 .833-.551l1-2.008 1.117 2.792 2 24.921a4.273 4.273 0 0 0 3.988 3.846 5 5 0 0 0 4.983-4.655 13.929 13.929 0 0 0 11.017 5.655 13.929 13.929 0 0 0 11.017-5.655 5 5 0 0 0 4.983 4.655c2.23 0 3.694-1.936 4-3.92l1.988-24.849 1.112-2.792 1 2.008a1 1 0 0 0 .832.551.975.975 0 0 0 .9-.443l4-6a1 1 0 0 0 -.019-1.136c-.207-.291-5.138-7.16-10.188-11.2zm-40.375 16.712-1.145-2.861 4.769-8.584-1.748-.972-6.25 11.5-2.655-3.986a62.568 62.568 0 0 1 9.4-10.247 3.024 3.024 0 0 1 2.729-.819c1.637.449 2.94 2.658 3.509 3.91zm31.75 21.069c0 4.051-5.076 9-11 9s-11-4.949-11-9v-2h22zm-21.78-4 .254-1.268.76 1.268zm3.815 0c.352-5.046 3.342-9 6.965-9s6.613 3.954 6.965 9zm16.731 0 .76-1.268.254 1.268zm9.7-8.327a10.835 10.835 0 0 0 -3.016-2.568l-.894 1.79a12.731 12.731 0 0 1 3.615 3.66l-.145 2.629a9.772 9.772 0 0 0 -2.579-2.084l-.894 1.79a11.514 11.514 0 0 1 3.243 3.14l-.784 9.813c-.16 1.048-.92 2.157-2.012 2.157a2.98 2.98 0 0 1 -3-3v-8a1.752 1.752 0 0 0 -.02-.2l-1-5a1 1 0 0 0 -1.837-.319l-1.456 2.427c-1.026-5.119-4.526-8.908-8.687-8.908s-7.661 3.789-8.687 8.912l-1.456-2.427a1 1 0 0 0 -1.837.319l-1 5a1.752 1.752 0 0 0 -.02.196v8a2.98 2.98 0 0 1 -3 3 2.31 2.31 0 0 1 -2-2.08l-.791-9.888a11.457 11.457 0 0 1 3.238-3.132l-.894-1.79a9.78 9.78 0 0 0 -2.575 2.078l-.146-2.628a12.677 12.677 0 0 1 3.615-3.66l-.894-1.79a10.831 10.831 0 0 0 -3.016 2.567l-.511-6.388 9.489-13.289h20.97l9.489 13.284zm5.661-9.661-6.25-11.5-1.748.972 4.771 8.586-1.15 2.861-8.613-12.059c.569-1.252 1.872-3.461 3.509-3.91a3.029 3.029 0 0 1 2.729.819 62.589 62.589 0 0 1 9.4 10.247z"/></g></svg>