<svg height="512" viewBox="0 0 64 64" width="512" xmlns="http://www.w3.org/2000/svg"><g id="Filled_outline" data-name="Filled outline"><path d="m51 31-11.032-14h-15.968l-11 14s-4.562 10.032 5 18 10.813 6.248 14 11.029c3.187-4.781 4.438-3.061 14-11.029s5-18 5-18z" fill="#f4f4e6"/><path d="m24 17s-14.219-15.781-19-11 .032 15.438 8 25z" fill="#d3843d"/><path d="m12.172 39.556c1.059-1.606 2.696-2.556 8.828-2.556 9.562 0 11-8 11-8v-12h-8l-11 14a15.645 15.645 0 0 0 -.828 8.556z" fill="#ffd782"/><path d="m20.5 21.449c-2.953-3.513-8.923-10.309-10.815-9-3.222 2.228 2.907 9.486 6.476 14.522z" fill="#f4f4e6"/><path d="m40 17s14.219-15.781 19-11-.032 15.438-8 25z" fill="#d3843d"/><path d="m51.828 39.556c-1.059-1.606-2.696-2.556-8.828-2.556-9.562 0-11-8-11-8v-12h8l11 14a15.645 15.645 0 0 1 .828 8.556z" fill="#ffd782"/><path d="m43.5 21.449c2.953-3.513 8.923-10.309 10.815-9 3.222 2.228-2.907 9.486-6.476 14.522z" fill="#f4f4e6"/><path d="m32 52a4 4 0 0 0 4-4v-1c-2.761 0-4-1.343-4-3 0 1.657-1.239 3-4 3v1a4 4 0 0 0 4 4z" fill="#f98c96"/><path d="m36 39a4.406 4.406 0 0 1 -4 4 4.406 4.406 0 0 1 -4-4c0-1.657 1.791-2 4-2s4 .343 4 2z" fill="#143441"/><circle cx="26" cy="31" r="2"/><path d="m59.707 5.293a4.207 4.207 0 0 0 -3.175-1.193c-5.822.151-15.157 9.938-16.972 11.9h-15.12c-1.815-1.962-11.15-11.749-16.972-11.9a4.215 4.215 0 0 0 -3.175 1.193c-5.543 5.543.206 16.915 7.562 25.889a16.932 16.932 0 0 0 -.941 5.845 16.6 16.6 0 0 0 6.445 12.741 66.665 66.665 0 0 0 9.108 6.55 11.7 11.7 0 0 1 4.7 4.266 1 1 0 0 0 1.664 0 11.7 11.7 0 0 1 4.7-4.266 66.665 66.665 0 0 0 9.108-6.55 16.559 16.559 0 0 0 5.5-18.58c7.361-8.975 13.112-20.351 7.568-25.895zm-54 1.414a2.168 2.168 0 0 1 1.616-.607h.093c4.275.111 11.986 7.436 15.272 10.952l-2.216 2.821c-7.565-8.835-9.946-9.221-11.352-8.246a3.024 3.024 0 0 0 -1.287 2.031c-.5 2.962 2.755 7.386 5.9 11.666.41.558.8 1.1 1.183 1.622l-1.932 2.454c-6.766-8.426-11.505-18.465-7.277-22.693zm13.507 14.766-3.014 3.836c-.278-.383-.565-.773-.857-1.17-2.488-3.386-5.894-8.023-5.537-10.151a1.011 1.011 0 0 1 .421-.7.267.267 0 0 1 .051 0c.332-.006 2.302.39 8.936 8.185zm-5.348 10.043 10.62-13.516h6.514v10.9c-.18.828-1.817 7.1-10 7.1-4.379 0-6.669.487-8.092 1.408a14.393 14.393 0 0 1 .958-5.892zm31.493 16.716a64.841 64.841 0 0 1 -8.864 6.377 13.941 13.941 0 0 0 -4.495 3.704 13.941 13.941 0 0 0 -4.5-3.7 64.841 64.841 0 0 1 -8.864-6.377 15.172 15.172 0 0 1 -5.411-8.436c.786-1.008 2.215-1.8 7.775-1.8 6.6 0 9.653-3.6 11-6.2 1.347 2.6 4.4 6.2 11 6.2 5.493 0 6.954.773 7.746 1.767a15.082 15.082 0 0 1 -5.387 8.465zm5.7-10.846c-1.429-.906-3.716-1.386-8.059-1.386-8.191 0-9.823-6.286-10-7.1v-10.9h6.483l10.649 13.514a14.712 14.712 0 0 1 .923 5.872zm-6.273-15.913c7.215-8.477 8.92-8.2 8.956-8.2a1.008 1.008 0 0 1 .452.717c.357 2.128-3.049 6.764-5.537 10.15-.292.4-.579.788-.857 1.171zm6.23 7.928-1.93-2.456c.379-.526.773-1.064 1.184-1.623 3.142-4.279 6.393-8.7 5.9-11.664a3.026 3.026 0 0 0 -1.287-2.032c-1.408-.973-3.788-.589-11.352 8.246l-2.216-2.821c3.285-3.516 10.994-10.841 15.269-10.951a2.184 2.184 0 0 1 1.709.608c4.228 4.227-.511 14.266-7.277 22.692z"/><circle cx="38" cy="31" r="2"/><path d="m36 46c-1.12 0-3-.26-3-2v-.126a5.54 5.54 0 0 0 4-4.874c0-3-3.764-3-5-3s-5 0-5 3a5.54 5.54 0 0 0 4 4.874v.126c0 1.74-1.88 2-3 2-2.289 0-4-1.056-4-2h-2c0 2.015 2.129 3.633 5 3.942v.058a5 5 0 0 0 10 0v-.058c2.871-.309 5-1.927 5-3.942h-2c0 .944-1.711 2-4 2zm-7-7c0-.3 0-1 3-1s3 .7 3 1a3.409 3.409 0 0 1 -3 3 3.409 3.409 0 0 1 -3-3zm6 9a3 3 0 0 1 -6 0v-.076a5.508 5.508 0 0 0 2-.606v1.682h2v-1.682a5.508 5.508 0 0 0 2 .606z"/></g></svg>